<?xml version="1.0" encoding="UTF-8"?>
<svg version="1.1" xmlns="http://www.w3.org/2000/svg" width="500" height="500">
<path d="M0 0 C165 0 330 0 500 0 C500 165 500 330 500 500 C335 500 170 500 0 500 C0 335 0 170 0 0 Z " fill="#FEFEFE" transform="translate(0,0)"/>
<path d="M0 0 C2.71003076 1.43092587 5.39328441 2.9051519 8.07568359 4.38720703 C42.62196552 22.89017786 73.73379605 31.8753553 111.87646484 20.83642578 C123.94356842 17.1227 135.51796294 11.84667154 146.59912109 5.82470703 C147.54070068 5.31383545 148.48228027 4.80296387 149.45239258 4.27661133 C151.23479806 3.29444368 153.00611824 2.2917755 154.76342773 1.26538086 C160.33130755 -1.84340324 163.52159717 -2.65971612 169.76318359 -1.05029297 C174.96513364 2.25094456 177.8152433 6.09743585 179.76318359 11.94970703 C180.26065025 16.13731488 180.17973669 20.26969029 180.09130859 24.48095703 C180.08630529 26.92496545 180.08243349 29.3689764 180.07958984 31.81298828 C180.05255168 35.63815155 180.01298284 39.46232858 179.95214844 43.28710938 C179.90111455 46.99827494 179.89947586 50.70700026 179.90380859 54.41845703 C179.87184387 55.55512817 179.83987915 56.69179932 179.8069458 57.86291504 C179.8433506 63.87680824 180.32024766 67.20375942 184.67407227 71.54150391 C186.03370949 72.68163838 187.39638548 73.81816697 188.76318359 74.94970703 C204.83117567 96.48356307 209.94128788 122.16936826 209.81005859 148.50439453 C209.8066748 149.79982178 209.80329102 151.09524902 209.79980469 152.42993164 C209.79102658 155.60321757 209.77872921 158.77644825 209.76318359 161.94970703 C176.53034924 161.97257249 143.29751684 161.99020479 110.06467638 162.00077236 C106.14541249 162.00202314 102.22614863 162.00331745 98.30688477 162.00463867 C97.52659662 162.00490098 96.74630848 162.00516329 95.94237524 162.00543355 C83.29128939 162.00979043 70.64020806 162.01767807 57.9891249 162.02685983 C45.01770801 162.03619589 32.0462935 162.04176254 19.07487339 162.04379553 C11.06430669 162.04517085 3.05375276 162.04952197 -4.95681001 162.0576235 C-11.08885313 162.06351103 -17.22088641 162.06416612 -23.35293198 162.06281471 C-25.87616492 162.06309125 -28.39939832 162.06509906 -30.9226284 162.06891251 C-34.3511014 162.07384263 -37.77951843 162.07270785 -41.20799255 162.06996155 C-42.22061722 162.07287439 -43.23324188 162.07578723 -44.27655214 162.07878834 C-45.18770943 162.07679729 -46.09886673 162.07480624 -47.03763485 162.07275486 C-47.83011118 162.07313458 -48.62258751 162.0735143 -49.43907827 162.07390553 C-51.23681641 161.94970703 -51.23681641 161.94970703 -52.23681641 160.94970703 C-54.34565082 129.77090974 -49.69259463 97.63957396 -29.09619141 73.00048828 C-27.23681641 70.94970703 -27.23681641 70.94970703 -25.15075684 69.15179443 C-22.79561154 66.44207802 -22.74221909 65.20942906 -22.75439453 61.66552734 C-22.74758667 60.6105304 -22.74077881 59.55553345 -22.73376465 58.46856689 C-22.74508423 57.33312439 -22.75640381 56.19768188 -22.76806641 55.02783203 C-22.76101685 53.85387878 -22.75396729 52.67992554 -22.7467041 51.47039795 C-22.71719391 46.4484128 -22.73381653 41.42681366 -22.74609375 36.40478516 C-22.74848024 32.73723305 -22.72751794 29.07030642 -22.70556641 25.40283203 C-22.71688599 24.27548645 -22.72820557 23.14814087 -22.73986816 21.9866333 C-22.69084292 14.29851736 -21.66304175 8.83276242 -16.42041016 2.89111328 C-15.55609375 2.20855469 -15.55609375 2.20855469 -14.67431641 1.51220703 C-14.09552734 1.03912109 -13.51673828 0.56603516 -12.92041016 0.07861328 C-8.48005237 -2.898796 -4.66808231 -2.19188934 0 0 Z " fill="#BA97FF" transform="translate(171.23681640625,130.05029296875)"/>
<path d="M0 0 C2.71003076 1.43092587 5.39328441 2.9051519 8.07568359 4.38720703 C42.62196552 22.89017786 73.73379605 31.8753553 111.87646484 20.83642578 C123.94356842 17.1227 135.51796294 11.84667154 146.59912109 5.82470703 C147.54070068 5.31383545 148.48228027 4.80296387 149.45239258 4.27661133 C151.23479806 3.29444368 153.00611824 2.2917755 154.76342773 1.26538086 C160.33130755 -1.84340324 163.52159717 -2.65971612 169.76318359 -1.05029297 C174.82968891 2.16498925 177.98318235 6.15946769 179.76318359 11.94970703 C180.54931644 16.30173845 179.5903807 18.58537185 177.15771484 22.09423828 C175.97842322 23.66141272 174.78339228 25.21682546 173.57568359 26.76220703 C172.94364014 27.59389404 172.31159668 28.42558105 171.66040039 29.2824707 C170.34809023 31.00578718 169.02941354 32.72427308 167.70458984 34.43798828 C165.89781041 36.77553189 164.10827593 39.12494338 162.32568359 41.48095703 C159.16180988 45.65561085 155.96866162 49.80694271 152.76318359 53.94970703 C152.28252441 54.57216309 151.80186523 55.19461914 151.30664062 55.8359375 C145.50732825 63.33280489 139.54193695 70.65481782 133.38427734 77.85986328 C130.94015025 80.72548397 128.56622626 83.64376226 126.20068359 86.57470703 C125.51217316 87.39998901 124.82366272 88.225271 124.11428833 89.07556152 C122.58016559 90.95097435 121.09504353 92.86787983 119.66940308 94.82702637 C116.34267418 99.06647609 113.65333643 102.35750245 108.40704346 104.0012207 C104.50705182 104.43274746 100.6867321 104.53582759 96.77099609 104.48095703 C95.33427157 104.49348378 93.8975701 104.50896325 92.46090698 104.52722168 C89.46256503 104.55232662 86.46783107 104.53716262 83.46972656 104.49365234 C79.65786568 104.44221763 75.8564959 104.50010275 72.04558945 104.58568764 C47.73313607 105.05690385 47.73313607 105.05690385 41.21337891 100.17382812 C38.0494182 97.11816912 35.9768883 93.73264753 33.76318359 89.94970703 C32.00574471 87.74702081 30.1437386 85.67674809 28.26318359 83.57470703 C17.67725521 71.03403861 7.65996118 58.03653504 -2.23681641 44.94970703 C-2.88714844 44.08990234 -3.53748047 43.23009766 -4.20751953 42.34423828 C-6.24098423 39.65237384 -8.27093664 36.95790472 -10.29931641 34.26220703 C-10.93071533 33.42471924 -11.56211426 32.58723145 -12.21264648 31.72436523 C-13.90020718 29.47527105 -15.57360629 27.21684935 -17.23681641 24.94970703 C-17.66655762 24.37075684 -18.09629883 23.79180664 -18.5390625 23.1953125 C-21.2927483 19.32450782 -21.85324098 16.76267518 -21.61962891 12.12158203 C-20.54898624 6.04732362 -15.91515468 2.43357596 -11.23681641 -1.05029297 C-6.96868678 -2.47300285 -4.08410043 -1.91768173 0 0 Z " fill="#8C52FF" transform="translate(171.23681640625,130.05029296875)"/>
<path d="M0 0 C2.42853928 1.02317822 3.41368881 2.11234287 5.04492188 4.17260742 C5.60228027 4.86483398 6.15963867 5.55706055 6.73388672 6.27026367 C7.32121582 7.01791992 7.90854492 7.76557617 8.51367188 8.53588867 C9.765077 10.09284275 11.01770127 11.64881765 12.27148438 13.20385742 C12.89829102 13.9855127 13.52509766 14.76716797 14.17089844 15.57250977 C16.85103783 18.88256003 19.60911044 22.12172373 22.38867188 25.34838867 C22.83919922 25.87392334 23.28972656 26.39945801 23.75390625 26.94091797 C24.63623253 27.96619007 25.5304183 28.98139983 26.43730164 29.98501587 C28.01367187 31.84838867 28.01367187 31.84838867 29.52680969 34.09794617 C32.34010776 37.93860333 34.51961298 40.43915751 39.20385742 41.72219849 C43.09774328 42.08795957 46.9399188 42.18186092 50.84570312 42.14916992 C52.28767589 42.16288265 53.72962914 42.17880745 55.17155457 42.19682312 C58.1855762 42.22352916 61.19721025 42.21646583 64.21118164 42.18652344 C68.04683149 42.15210341 71.87417228 42.2125782 75.70872974 42.30027485 C78.68551169 42.3557385 81.66034809 42.35441442 84.63751793 42.33736229 C86.04920787 42.33690677 87.46104156 42.35469997 88.87223244 42.39223671 C95.0231978 42.53278733 100.50185186 42.52101297 105.24594116 38.26815796 C108.11673256 35.32620533 110.56097013 32.14343767 113.01367188 28.84838867 C114.5072187 27.03056741 116.00614243 25.21713096 117.51367188 23.41088867 C118.58681641 22.07864258 118.58681641 22.07864258 119.68164062 20.71948242 C122.7998685 16.88045815 126.0013242 13.11494279 129.20898438 9.35058594 C131.86676867 6.22582738 134.46773478 3.06493391 137.01367188 -0.15161133 C142.7783532 0.70668567 145.72232177 5.4072771 149.01367188 9.84838867 C155.69846945 21.21973251 158.13292083 33.00296351 155.33007812 46.02416992 C149.84402021 62.11812406 137.69857144 72.78237576 122.95117188 80.43823242 C106.19696174 88.50735568 90.16665473 92.21594599 71.62695312 92.1640625 C69.28142306 92.16091251 66.93717116 92.18440523 64.59179688 92.2097168 C40.49710566 92.3125569 14.85672293 84.96745007 -2.97143555 68.06542969 C-12.66371184 58.40654625 -18.06536569 48.40911757 -18.23632812 34.66088867 C-18.20014421 21.69131564 -13.5537089 11.69764881 -4.79882812 2.09838867 C-1.98632812 -0.15161133 -1.98632812 -0.15161133 0 0 Z " fill="#DCCAFE" transform="translate(180.986328125,191.151611328125)"/>
<path d="M0 0 C0 31.35 0 62.7 0 95 C-9.57 95 -19.14 95 -29 95 C-31.65037256 92.34962744 -30.2422367 84.67556973 -30.25 81.125 C-30.22401501 51.75825437 -23.69911423 23.53990175 -2.828125 1.73046875 C-1 0 -1 0 0 0 Z " fill="#8D53FF" transform="translate(149,197)"/>
<path d="M0 0 C18.1154855 15.527559 27.22591117 38.93330849 29.7265625 62.3828125 C31.6125672 88.77486559 31.6125672 88.77486559 29 94 C19.43 94 9.86 94 0 94 C0 62.98 0 31.96 0 0 Z " fill="#8C53FF" transform="translate(351,197)"/>
<path d="M0 0 C21.12 0 42.24 0 64 0 C60.38222237 4.82370351 57.10155998 9.15326446 53.0625 13.5 C50.0639348 16.7458232 47.11364108 20.00974551 44.25 23.375 C37.16926358 31.43410515 37.16926358 31.43410515 32.125 32.75 C19.52869292 29.7268863 6.82761387 10.24142081 0 0 Z " fill="#FDBB5C" transform="translate(218,233)"/>
<path d="M0 0 C4.93205862 2.42119241 8.92632231 5.86844007 10.75 11.1875 C11.62164886 20.99354964 10.57699889 27.44948448 5.1875 35.8125 C1.27617899 39.72382101 -2.51869747 42.19259986 -8.0625 42.5 C-12.6394324 41.91880223 -14.59219738 41.09800238 -18 38 C-22.90466634 30.21207932 -24.4167955 22.31692262 -22.38671875 13.265625 C-20.54175617 7.90141662 -18.12728844 4.14472997 -13.34765625 1 C-8.91956593 -0.88617491 -4.68712757 -0.83980693 0 0 Z " fill="#FFBF5F" transform="translate(369,303)"/>
<path d="M0 0 C4.93205862 2.42119241 8.92632231 5.86844007 10.75 11.1875 C11.62164886 20.99354964 10.57699889 27.44948448 5.1875 35.8125 C1.27617899 39.72382101 -2.51869747 42.19259986 -8.0625 42.5 C-12.6394324 41.91880223 -14.59219738 41.09800238 -18 38 C-22.90466634 30.21207932 -24.4167955 22.31692262 -22.38671875 13.265625 C-20.54175617 7.90141662 -18.12728844 4.14472997 -13.34765625 1 C-8.91956593 -0.88617491 -4.68712757 -0.83980693 0 0 Z " fill="#9059FF" transform="translate(178,303)"/>
<path d="M0 0 C1.0725 -0.01417969 2.145 -0.02835937 3.25 -0.04296875 C6 0.1875 6 0.1875 8 2.1875 C8.1875 5.25 8.1875 5.25 8 8.1875 C6.39797384 9.78952616 4.5251789 9.34489162 2.3125 9.4375 C-3.12859359 9.94274441 -5.32746535 11.15666928 -9 15.1875 C-11.87071859 19.5892685 -12.58089535 22.95944187 -12 28.1875 C-11.18547684 30.74601025 -11.18547684 30.74601025 -9 32.1875 C-6.09961846 32.70945005 -4.00821158 32.52174573 -1 32.1875 C-0.34 31.1975 0.32 30.2075 1 29.1875 C-0.11375 29.39375 -1.2275 29.6 -2.375 29.8125 C-3.57125 29.93625 -4.7675 30.06 -6 30.1875 C-6.66 29.5275 -7.32 28.8675 -8 28.1875 C-7.75 24.625 -7.75 24.625 -7 21.1875 C-4.17314012 19.77407006 -1.71268563 19.94172634 1.4375 19.875 C2.59121094 19.83761719 3.74492187 19.80023438 4.93359375 19.76171875 C8 20.1875 8 20.1875 9.8828125 21.96484375 C11.5812037 25.34381087 11.6343598 28.53640696 11 32.1875 C8.72190435 36.57494347 6.08156919 39.43171712 2 42.1875 C-3.59625028 43.15090511 -9.88777835 43.21797332 -15.0625 40.625 C-19.33210957 37.08213249 -21.47193459 34.09874759 -22.44921875 28.7109375 C-22.9599779 20.83389631 -20.37694817 14.6517743 -16 8.1875 C-10.99889878 2.78816295 -7.42040311 0.04459377 0 0 Z " fill="#FFBE5D" transform="translate(332,301.8125)"/>
<path d="M0 0 C3.0625 0.25 3.0625 0.25 6 1 C9.42670319 7.85340637 4.95572486 20.38515795 3.5625 27.5625 C3.34529297 28.73619141 3.12808594 29.90988281 2.90429688 31.11914062 C2.68966797 32.23611328 2.47503906 33.35308594 2.25390625 34.50390625 C2.06127197 35.51267822 1.8686377 36.5214502 1.67016602 37.56079102 C1 40 1 40 -1 42 C-3.375 42.5 -3.375 42.5 -6 42 C-9.5708526 37.79899694 -11.22756137 33.14007202 -13 28 C-13.39832031 29.69769531 -13.39832031 29.69769531 -13.8046875 31.4296875 C-14.1610844 32.91154832 -14.51787576 34.3933143 -14.875 35.875 C-15.04902344 36.62136719 -15.22304688 37.36773437 -15.40234375 38.13671875 C-16.7734375 43.7734375 -16.7734375 43.7734375 -19 46 C-22.29714793 45.67028521 -23.6226839 45.3773161 -26 43 C-25.58957763 36.62765269 -24.06348046 30.50459142 -22.5625 24.3125 C-22.23668945 22.92708008 -22.23668945 22.92708008 -21.90429688 21.51367188 C-19.18940874 10.18940874 -19.18940874 10.18940874 -17 8 C-14.625 7.625 -14.625 7.625 -12 8 C-9.21346273 11.53675884 -7.7572625 15.87868545 -6 20 C-5.73445313 18.72382813 -5.46890625 17.44765625 -5.1953125 16.1328125 C-4.83893345 14.46345798 -4.48214116 12.79419164 -4.125 11.125 C-3.86396484 9.86236328 -3.86396484 9.86236328 -3.59765625 8.57421875 C-3.33662109 7.36572266 -3.33662109 7.36572266 -3.0703125 6.1328125 C-2.91320801 5.38918457 -2.75610352 4.64555664 -2.59423828 3.87939453 C-2 2 -2 2 0 0 Z " fill="#FFBF5E" transform="translate(300,307)"/>
<path d="M0 0 C2.5 0.25 2.5 0.25 4.5 2.25 C6.09379668 13.8050259 3.22835194 27.20659029 -2.5 37.25 C-5.35830105 40.67734496 -8.11110504 42.75617068 -12.3125 44.25 C-13.034375 44.25 -13.75625 44.25 -14.5 44.25 C-16.5 42.25 -16.5 42.25 -17 39.4375 C-16.27761102 34.83227027 -14.19559539 33.96513131 -10.5 31.25 C-10.17 30.59 -9.84 29.93 -9.5 29.25 C-10.09167969 29.29640625 -10.68335938 29.3428125 -11.29296875 29.390625 C-15.41607583 29.57895616 -17.81700573 29.6568902 -21.4375 27.5 C-26.03284293 22.48689862 -25.85139898 18.0777082 -25.76953125 11.46875 C-25.43018863 7.41631061 -24.4672719 4.77469548 -22.5 1.25 C-20.19 1.58 -17.88 1.91 -15.5 2.25 C-15.5 7.86 -15.5 13.47 -15.5 19.25 C-10.72261638 19.7312206 -10.72261638 19.7312206 -8.2578125 17.6640625 C-6.0369108 14.61402417 -5.7710057 12.35756434 -5.375 8.625 C-4.47455124 0.44745512 -4.47455124 0.44745512 0 0 Z " fill="#8F57FF" transform="translate(147.5,303.75)"/>
<path d="M0 0 C2.375 0.75 2.375 0.75 3.375 1.75 C3.57967172 5.21425832 3.72095185 8.67157659 3.8046875 12.140625 C4.02232494 17.34578711 5.05680233 21.07641432 7.375 25.75 C9.7602733 25.87815365 9.7602733 25.87815365 12.375 24.75 C16.66246066 18.6760974 16.89776364 13.0476448 17.1015625 5.7265625 C17.375 2.75 17.375 2.75 19.375 0.75 C22.375 0.9375 22.375 0.9375 25.375 1.75 C28.60934818 6.60152228 27.91471994 11.73391797 26.91015625 17.34765625 C25.01053234 24.62018091 21.73402527 30.41328677 15.5 34.75 C11.61655593 35.9927021 8.40128092 36.58579484 4.375 35.75 C-1.08400414 32.4539975 -3.02606283 28.82366063 -4.625 22.75 C-5.66296176 18.52556823 -5.82358049 14.4699483 -5.875 10.125 C-5.90078125 8.81273437 -5.9265625 7.50046875 -5.953125 6.1484375 C-5.625 2.75 -5.625 2.75 -4.2734375 0.7734375 C-2.625 -0.25 -2.625 -0.25 0 0 Z " fill="#8F57FF" transform="translate(197.625,307.25)"/>
<path d="M0 0 C2.4375 0.375 2.4375 0.375 4.4375 2.375 C4.4463715 5.15178054 4.34197286 7.80251185 4.125 10.5625 C4.07666016 11.30564453 4.02832031 12.04878906 3.97851562 12.81445312 C3.66284501 17.37369578 3.13729281 21.85924297 2.4375 26.375 C3.14519531 26.21386719 3.85289062 26.05273438 4.58203125 25.88671875 C7.48329581 25.36679309 10.17984913 25.20758971 13.125 25.1875 C14.55392578 25.16623047 14.55392578 25.16623047 16.01171875 25.14453125 C18.4375 25.375 18.4375 25.375 20.4375 27.375 C20.0625 30.5 20.0625 30.5 19.4375 33.375 C15.28150718 34.86464803 11.30178496 35.84535726 6.9375 36.5 C5.31328125 36.75136719 5.31328125 36.75136719 3.65625 37.0078125 C0.52214579 37.36534381 -2.41364644 37.58311388 -5.5625 37.375 C-7.5625 35.375 -7.5625 35.375 -7.73828125 31.45703125 C-7.61211361 25.97696744 -7.21759865 20.52272671 -6.75 15.0625 C-6.67974609 14.08732422 -6.60949219 13.11214844 -6.53710938 12.10742188 C-6.45654297 11.16833984 -6.37597656 10.22925781 -6.29296875 9.26171875 C-6.22489014 8.41826904 -6.15681152 7.57481934 -6.08666992 6.70581055 C-5.2367082 2.92631146 -3.94100515 0.57673246 0 0 Z " fill="#FFBF5E" transform="translate(235.5625,306.625)"/>
<path d="M0 0 C2.375 0.75 2.375 0.75 3.375 1.75 C3.91405965 9.50119808 3.11841609 17.39470228 2.5625 25.125 C2.49224609 26.28644531 2.42199219 27.44789063 2.34960938 28.64453125 C2.26904297 29.75957031 2.18847656 30.87460937 2.10546875 32.0234375 C2.03739014 33.02810059 1.96931152 34.03276367 1.89916992 35.06787109 C1.3118965 38.07289478 0.49608586 39.56187847 -1.625 41.75 C-4.1875 42.125 -4.1875 42.125 -6.625 41.75 C-8.625 39.75 -8.625 39.75 -8.79199219 37.74145508 C-8.75235352 36.92572021 -8.71271484 36.10998535 -8.671875 35.26953125 C-8.63078613 34.35921143 -8.58969727 33.4488916 -8.54736328 32.51098633 C-8.4904834 31.53798584 -8.43360352 30.56498535 -8.375 29.5625 C-8.3219873 28.57467529 -8.26897461 27.58685059 -8.21435547 26.5690918 C-6.92889543 4.52112462 -6.92889543 4.52112462 -4.21875 0.83984375 C-2.625 -0.25 -2.625 -0.25 0 0 Z " fill="#FFBF5F" transform="translate(267.625,305.25)"/>
<path d="M0 0 C2.6618004 2.6618004 2.29866602 4.04249263 2.3125 7.75 C2.21985639 13.69344412 1.29632905 17.70367095 -3 22 C-6.625 22.125 -6.625 22.125 -10 22 C-12.14650403 18.50231017 -12.29840526 15.62648263 -12.3125 11.5625 C-12.32925781 10.45003906 -12.34601563 9.33757812 -12.36328125 8.19140625 C-11.96350147 4.67936237 -11.0991562 2.81419724 -9 0 C-5.88135455 -1.55932272 -3.33704665 -0.65549131 0 0 Z " fill="#FFFDFC" transform="translate(368,313)"/>
<path d="M0 0 C2.6618004 2.6618004 2.29866602 4.04249263 2.3125 7.75 C2.21985639 13.69344412 1.29632905 17.70367095 -3 22 C-6.625 22.125 -6.625 22.125 -10 22 C-12.14650403 18.50231017 -12.29840526 15.62648263 -12.3125 11.5625 C-12.32925781 10.45003906 -12.34601563 9.33757812 -12.36328125 8.19140625 C-11.96350147 4.67936237 -11.0991562 2.81419724 -9 0 C-5.88135455 -1.55932272 -3.33704665 -0.65549131 0 0 Z " fill="#FDFCFF" transform="translate(177,313)"/>
<path d="M0 0 C2.06640625 0.6015625 2.06640625 0.6015625 4.19140625 2.2265625 C5.49520443 5.76544328 5.09524277 8.00063468 4.06640625 11.6015625 C1.87890625 14.1015625 1.87890625 14.1015625 -0.93359375 15.6015625 C-4.52841365 15.6015625 -6.34905822 15.00150786 -9.30859375 12.9765625 C-11.58603063 9.6480009 -11.49775968 7.550724 -10.93359375 3.6015625 C-8.21043315 -1.13436898 -4.91643546 -0.82615555 0 0 Z " fill="#212022" transform="translate(300.93359375,226.3984375)"/>
<path d="M0 0 C2.875 1.5625 2.875 1.5625 5 4 C5.80740332 8.44071826 5.50331836 10.26790056 2.9375 14 C0 16 0 16 -3.625 16 C-8.61768902 14.52068474 -8.61768902 14.52068474 -10 12 C-10.75912409 5.16788321 -10.75912409 5.16788321 -8.375 1.5 C-5.25991849 -0.4674199 -3.62829011 -0.5923739 0 0 Z " fill="#1F1F20" transform="translate(205,226)"/>
</svg>
