<?xml version="1.0" encoding="UTF-8"?>
<svg version="1.1" xmlns="http://www.w3.org/2000/svg" width="500" height="200">
<path d="M0 0 C7.15352285 4.59434091 11.37444422 11.06723908 13.61328125 19.23828125 C15.85574845 35.25266823 13.94397824 50.44079813 4.6953125 63.8984375 C-0.46957711 70.58069581 -7.93303719 74.76371537 -16 77 C-23.746505 77.82655016 -30.56286711 77.68574112 -37 73 C-44.40423724 66.80110371 -49.2506565 57.84803265 -50.30273438 48.23339844 C-50.43791922 45.23209319 -50.46746556 42.25416608 -50.4375 39.25 C-50.42992676 38.19103516 -50.42235352 37.13207031 -50.41455078 36.04101562 C-50.17201977 24.50574493 -48.17946897 14.63388391 -40 6 C-39.48695313 5.44699219 -38.97390625 4.89398438 -38.4453125 4.32421875 C-27.80749231 -5.93186148 -12.71148674 -6.50041128 0 0 Z M-27 19 C-32.15907641 27.7142092 -33.41437077 37.93790043 -31.43359375 47.828125 C-29.84868814 53.58526182 -29.84868814 53.58526182 -26 58 C-22.56502166 59.33582491 -21.05395338 59.01734216 -17.5 57.875 C-11.54658066 54.68566821 -8.32163599 50.82686975 -5.7890625 44.66015625 C-3.47117076 36.84587765 -3.1304508 28.65213119 -6 21 C-8.45615991 17.37722421 -8.45615991 17.37722421 -12 15 C-18.05695979 14.26105091 -22.41520866 14.62845477 -27 19 Z " fill="#FCBD5B" transform="translate(483,25)"/>
<path d="M0 0 C4.59538431 2.85935024 4.59538431 2.85935024 5.8125 5.75 C5.99941021 8.91579168 5.9064968 11.76254719 4.8125 14.75 C1.92170123 17.93422571 0.47549056 18.71755578 -3.859375 18.9296875 C-5.2194449 18.83789855 -6.57885965 18.73595829 -7.9375 18.625 C-14.136085 18.38940595 -18.44152296 18.85346142 -23.359375 22.8515625 C-30.15015427 29.90352559 -34.2090954 38.10107208 -34.5625 47.9375 C-34.40346006 52.20507169 -33.76464625 55.22790013 -31.1875 58.75 C-26.91542292 61.63116826 -22.32764072 62.92406851 -17.1875 62.75 C-13.67299521 61.51341498 -11.80562093 60.73337421 -9.8125 57.5625 C-9.60625 56.964375 -9.4 56.36625 -9.1875 55.75 C-9.6825 56.08 -10.1775 56.41 -10.6875 56.75 C-14.1928353 58.15213412 -17.49686444 58.35778324 -21.1875 57.75 C-24.63062714 55.6255173 -25.90367547 54.60147359 -27.1875 50.75 C-27.74145683 44.65647482 -27.74145683 44.65647482 -25.8125 41.5 C-18.45490804 36.59493869 -9.82093815 35.86108465 -1.1875 36.75 C2.61005006 37.62950441 5.22734919 39.24184272 8.1875 41.8125 C11.72562311 48.20833794 11.22149329 54.31042978 9.4375 61.25 C6.7400444 69.04776415 2.42455922 75.12718937 -4.83203125 79.25390625 C-15.09943402 83.46956375 -25.91816744 82.61126904 -36.1875 78.75 C-44.35238911 74.45149292 -49.35256079 69.2027626 -52.2890625 60.4765625 C-55.76563499 46.05634443 -52.28338694 32.00586701 -44.94140625 19.3828125 C-35.29467577 4.90197432 -18.10699739 -7.08030026 0 0 Z " fill="#FCBC5A" transform="translate(417.1875,20.25)"/>
<path d="M0 0 C7.47882128 7.36856839 10.07213593 15.19667396 10.24169922 25.58618164 C10.28581764 38.74774423 8.69549409 48.98952384 1 60 C0.2575 61.0725 -0.485 62.145 -1.25 63.25 C-8.08122149 70.08122149 -16.24906917 74.01168966 -25.875 74.3125 C-33.35129431 74.17353542 -39.62649043 72.51491772 -45 67 C-51.94008741 57.35115398 -54.55336837 47.86058799 -54.375 36.0625 C-54.36557373 35.09610596 -54.35614746 34.12971191 -54.34643555 33.1340332 C-54.08766311 20.92224225 -51.15892981 10.3555693 -42.75 1.1875 C-31.17928907 -9.70109478 -12.20712804 -9.98765022 0 0 Z M-31 16 C-36.24729051 25.01457601 -37.54146413 35.53718745 -35.43359375 45.7421875 C-34.22195146 49.61183043 -33.15825735 52.33916819 -30 55 C-26.2336848 56.31383088 -23.62609363 56.15735057 -20 54.6875 C-14.18214776 51.45535987 -11.47953797 45.83179879 -9.15234375 39.8046875 C-7.25623605 32.998791 -7.15950274 24.48412061 -9.859375 17.90625 C-11.57145164 15.21960666 -13.3418134 13.7721244 -16 12 C-21.96900923 11.02221944 -26.51967657 11.7280637 -31 16 Z " fill="#8A52F9" transform="translate(124,28)"/>
<path d="M0 0 C3.72204903 0.52239285 5.64507155 1.16605724 8.5625 3.5 C14.14117657 11.92084549 8.45700448 28.85717865 6.71606445 38.28491211 C6.25283642 40.79711738 5.8023016 43.31135098 5.35351562 45.82617188 C4.46996548 50.72695959 3.53654455 55.61641215 2.5625 60.5 C2.40138733 61.30902771 2.24027466 62.11805542 2.07427979 62.95159912 C1.59629865 65.29919618 1.09413146 67.64010249 0.58203125 69.98046875 C0.36760628 71.03250237 0.36760628 71.03250237 0.14884949 72.10578918 C-0.8167818 76.34465369 -2.00905204 78.79220526 -5.4375 81.5 C-7.40234375 82.25 -7.40234375 82.25 -9.375 82.5 C-10.02339844 82.603125 -10.67179687 82.70625 -11.33984375 82.8125 C-14.76864176 82.3016921 -16.03063417 81.01761119 -18.4375 78.5 C-20.31646304 75.06675991 -21.78546863 71.50099448 -23.25 67.875 C-23.65669922 66.90820312 -24.06339844 65.94140625 -24.48242188 64.9453125 C-27.4375 57.83325893 -27.4375 57.83325893 -27.4375 55.5 C-28.0975 55.5 -28.7575 55.5 -29.4375 55.5 C-29.56640625 56.77359375 -29.6953125 58.0471875 -29.828125 59.359375 C-30.40744744 64.5327649 -31.23206442 69.63379657 -32.1875 74.75 C-32.331875 75.62140625 -32.47625 76.4928125 -32.625 77.390625 C-33.65519111 82.84066829 -34.82475175 86.00678205 -39.4375 89.5 C-43.52003945 90.28176287 -45.11583514 89.68207445 -48.75 87.625 C-51.4375 85.5 -51.4375 85.5 -52.4375 83.5 C-53.18807905 74.44301285 -50.77552591 65.82160328 -48.75 57.0625 C-48.37971678 55.43947243 -48.00951847 53.8164255 -47.6394043 52.19335938 C-46.59152962 47.62425595 -45.5176772 43.06155542 -44.4375 38.5 C-44.17710937 37.38866699 -43.91671875 36.27733398 -43.6484375 35.13232422 C-43.0409965 32.58081019 -42.4066782 30.03921089 -41.75 27.5 C-41.5847583 26.81494385 -41.4195166 26.1298877 -41.24926758 25.42407227 C-40.0378958 21.01092853 -38.33323861 18.87943316 -34.4375 16.5 C-31.45038623 15.74348702 -29.60423769 16.09787458 -26.4375 16.5 C-21.68003102 19.89410613 -19.91990654 25.55801867 -17.6875 30.75 C-17.27628906 31.68585937 -16.86507812 32.62171875 -16.44140625 33.5859375 C-15.43170662 35.88711341 -14.43077003 38.1916964 -13.4375 40.5 C-13.19628418 38.94889526 -13.19628418 38.94889526 -12.95019531 37.36645508 C-12.34707592 33.51537968 -11.72346845 29.66785264 -11.09375 25.82104492 C-10.82451085 24.1585255 -10.56076971 22.49510568 -10.30273438 20.83081055 C-9.92994613 18.43277844 -9.53722729 16.03872549 -9.140625 13.64453125 C-8.9747287 12.53486748 -8.9747287 12.53486748 -8.80548096 11.40278625 C-7.79793654 5.51380009 -6.33866732 0.92198797 0 0 Z " fill="#FCBC5B" transform="translate(348.4375,28.5)"/>
<path d="M0 0 C2.89349028 4.66173434 2.15023501 10.50281742 1.48828125 15.71484375 C1.32545654 17.00986816 1.16263184 18.30489258 0.99487305 19.63916016 C0.81046997 21.00962757 0.62465364 22.3799055 0.4375 23.75 C0.34441559 24.44502625 0.25133118 25.14005249 0.15542603 25.85614014 C-2.69187837 46.97209822 -6.08984786 65.01993304 -23.875 78.8125 C-27.3922839 81.05757483 -29.30831506 81.80272957 -33.5 81.875 C-36.875 80.8125 -36.875 80.8125 -39.375 78.25 C-41.21366128 74.03640122 -41.47002826 71.14052991 -39.875 66.8125 C-37.75 64.6875 -37.75 64.6875 -34.875 62.8125 C-33.60932125 61.81117188 -32.35980237 60.78916496 -31.125 59.75 C-30.23554687 59.02103516 -30.23554687 59.02103516 -29.328125 58.27734375 C-27.61256885 56.76456978 -27.61256885 56.76456978 -26.875 53.8125 C-27.720625 53.85890625 -28.56625 53.9053125 -29.4375 53.953125 C-37.62524236 54.21364408 -43.43181675 53.91077861 -49.5859375 48.234375 C-56.04986975 41.23440934 -58.26045955 33.06321616 -58.1640625 23.6484375 C-57.7784943 19.86570086 -56.96466325 16.25236862 -56.0625 12.5625 C-55.8972583 11.87687988 -55.7320166 11.19125977 -55.56176758 10.48486328 C-54.52820255 6.49943652 -53.27811363 3.16802875 -50.875 -0.1875 C-47.81070224 -1.71964888 -45.2584358 -1.41688548 -41.875 -1.1875 C-37.275 1.0125 -37.275 1.0125 -35.875 3.8125 C-35.4985156 8.89503938 -36.07492416 12.8972721 -37.4375 17.8125 C-38.83081296 23.01113466 -39.11225011 26.5779803 -37.875 31.8125 C-37.215 32.8025 -36.555 33.7925 -35.875 34.8125 C-32.03547203 35.423334 -30.18526231 34.98004165 -26.75 33.125 C-20.95663427 28.46511887 -19.43138731 25.04687553 -18.60351562 17.796875 C-18.50748047 16.81203125 -18.41144531 15.8271875 -18.3125 14.8125 C-17.08945839 2.75567692 -17.08945839 2.75567692 -13.875 -1.1875 C-9.09255553 -4.24295064 -4.6287926 -2.93156865 0 0 Z " fill="#8A52F9" transform="translate(62.875,26.1875)"/>
<path d="M0 0 C2.98309553 3.09782997 2.76642375 6.34240646 2.8359375 10.4296875 C2.86429688 11.57953125 2.89265625 12.729375 2.921875 13.9140625 C2.9731189 16.30715251 3.01762232 18.70039839 3.0546875 21.09375 C3.14302286 34.886492 3.14302286 34.886492 8.58349609 47.05029297 C10.49790548 48.92375629 10.49790548 48.92375629 13 48.75 C19.40741247 46.15652352 21.77846508 42.91745788 24.4375 36.6875 C26.58463387 31.23975582 27.73308155 26.38462204 27.765625 20.52734375 C27.78496094 19.56892578 27.80429688 18.61050781 27.82421875 17.62304688 C27.85813562 15.62064697 27.87630705 13.61791982 27.87890625 11.61523438 C28.06570846 4.31520076 28.06570846 4.31520076 30.98828125 1.03515625 C34.26226203 -0.6382117 35.99008633 -0.90595529 39.625 -0.3125 C43.97332831 1.61079906 45.32583045 2.92006508 47.0625 7.375 C49.88171132 25.28873858 44.53209566 43.16573203 34.4375 57.875 C27.68629465 64.62620535 20.69081813 67.80546059 11.25 67.9375 C3.64179601 67.82723617 -0.07144422 66.2211815 -5.4375 60.875 C-15.71696819 48.7283244 -16.49182675 31.90142333 -16.6875 16.6875 C-16.70530518 15.79087646 -16.72311035 14.89425293 -16.74145508 13.97045898 C-16.73511567 8.7862898 -16.27198862 5.17178214 -13.375 0.6875 C-9.50221492 -2.35540256 -4.22688045 -2.33590762 0 0 Z " fill="#8A52F9" transform="translate(155.375,31.3125)"/>
<path d="M0 0 C2.9375 1.3125 2.9375 1.3125 5 4 C6.30057634 13.62870534 4.12663364 24.09882694 3 33.6875 C2.80672548 35.37167991 2.6140128 37.0559244 2.421875 38.74023438 C1.95438706 42.82759581 1.47931749 46.91400961 1 51 C2.13655029 50.78851318 3.27310059 50.57702637 4.4440918 50.35913086 C5.96658881 50.08161984 7.48913373 49.8043715 9.01171875 49.52734375 C9.75707886 49.38792358 10.50243896 49.24850342 11.27038574 49.1048584 C18.03718952 47.88304886 25.17452404 46.8141786 32 48 C34.35546875 49.78125 34.35546875 49.78125 36 52 C36.57534367 56.53083141 36.59457159 58.81085683 34.5625 62.875 C28.58931506 67.82837287 18.52255075 67.75304339 11.01757812 68.85546875 C7.20025058 69.43413454 3.47473145 70.0902744 -0.26171875 71.0703125 C-4.93453802 72.23241384 -9.22125107 72.71046887 -14 72 C-16.57637471 70.11484777 -17.59667428 68.80665143 -19 66 C-18.94629294 63.81529364 -18.81657858 61.63231138 -18.65234375 59.453125 C-18.60343491 58.78992249 -18.55452606 58.12671997 -18.50413513 57.44342041 C-18.34307487 55.29501091 -18.17259578 53.1475117 -18 51 C-17.94467102 50.29883057 -17.88934204 49.59766113 -17.83233643 48.87524414 C-17.49039557 44.56397822 -17.12839999 40.25473786 -16.75268555 35.94628906 C-16.62529281 34.47514013 -16.50031502 33.0037802 -16.37768555 31.53222656 C-14.24293785 5.91525424 -14.24293785 5.91525424 -9 1 C-5.89951072 -0.55024464 -3.42105782 -0.28992015 0 0 Z " fill="#FCBD5C" transform="translate(226,29)"/>
<path d="M0 0 C3.01463081 2.88980705 3.96046636 4.36857895 4.22460938 8.58740234 C4.11984707 9.96378326 3.9915111 11.33850673 3.84375 12.7109375 C3.75039368 13.82557877 3.75039368 13.82557877 3.65515137 14.96273804 C3.5218574 16.52721744 3.37898208 18.09090696 3.22705078 19.65368652 C3.00882018 21.90885344 2.81750523 24.16440545 2.63671875 26.42285156 C2.28130782 30.82573828 1.89317293 35.22534635 1.5 39.625 C1.23761704 42.57535065 0.97749302 45.52589055 0.71875 48.4765625 C0.65526367 49.1894342 0.59177734 49.90230591 0.52636719 50.63677979 C0.21783916 54.17263615 -0.05189657 57.70492488 -0.24609375 61.24902344 C-0.28440308 61.92710052 -0.3227124 62.60517761 -0.36218262 63.30380249 C-0.46203018 65.14923813 -0.55075306 66.9952662 -0.63867188 68.84130859 C-1.09129823 72.79811929 -1.94700926 75.77853074 -4.5625 78.8125 C-8.34503173 80.65527187 -11.88337613 80.77045071 -16 80 C-18.5625 78.125 -18.5625 78.125 -20 75 C-20.56740144 67.94798137 -19.77650339 60.75742292 -19.1953125 53.7265625 C-19.11127167 52.68156586 -19.02723083 51.63656921 -18.94064331 50.55990601 C-18.76274633 48.36301465 -18.58279484 46.16628878 -18.40087891 43.96972656 C-18.12638447 40.64178511 -17.86161977 37.31316631 -17.59765625 33.984375 C-17.42246387 31.8358894 -17.24670122 29.68745021 -17.0703125 27.5390625 C-16.99313995 26.56055328 -16.91596741 25.58204407 -16.8364563 24.57388306 C-15.24097295 5.65463059 -15.24097295 5.65463059 -11.9375 1.25 C-8.0112326 -0.42075208 -4.16951122 -1.2008789 0 0 Z " fill="#FBBC5C" transform="translate(287,26)"/>
<path d="M0 0 C2.98309553 3.09782997 2.76642375 6.34240646 2.8359375 10.4296875 C2.86429688 11.57953125 2.89265625 12.729375 2.921875 13.9140625 C2.9731189 16.30715251 3.01762232 18.70039839 3.0546875 21.09375 C3.17934787 34.84235748 3.17934787 34.84235748 8.49755859 47.06982422 C10.67916369 49.09626833 10.67916369 49.09626833 14.375 48.4375 C15.4475 48.19 16.52 47.9425 17.625 47.6875 C17.625 48.3475 17.625 49.0075 17.625 49.6875 C16.635 50.1825 16.635 50.1825 15.625 50.6875 C15.295 51.6775 14.965 52.6675 14.625 53.6875 C12.975 53.3575 11.325 53.0275 9.625 52.6875 C9.625 52.0275 9.625 51.3675 9.625 50.6875 C8.84125 49.965625 8.0575 49.24375 7.25 48.5 C4.23863214 45.27353443 3.57095909 42.94431589 2.625 38.6875 C2.295 37.6975 1.965 36.7075 1.625 35.6875 C1.48524622 33.45161966 1.3995569 31.21220478 1.34375 28.97265625 C1.31613586 27.99443153 1.31613586 27.99443153 1.28796387 26.9964447 C1.22932267 24.91438646 1.1764729 22.83224704 1.125 20.75 C1.05713347 18.01155372 0.98343288 15.27335398 0.90625 12.53515625 C0.87595703 11.31836182 0.84566406 10.10156738 0.81445312 8.84790039 C0.6605858 6.28113167 0.37484441 4.13094544 -0.375 1.6875 C-5.96005263 0.54427665 -5.96005263 0.54427665 -11.375 1.6875 C-13.70285946 5.17928919 -13.6211375 6.56148248 -13.60546875 10.68359375 C-13.60353516 11.88306641 -13.60160156 13.08253906 -13.59960938 14.31835938 C-13.58736328 15.57455078 -13.57511719 16.83074219 -13.5625 18.125 C-13.56185547 19.34638672 -13.56121094 20.56777344 -13.56054688 21.82617188 C-13.52382848 29.49215617 -13.14083142 37.06003053 -12.375 44.6875 C-11.715 44.6875 -11.055 44.6875 -10.375 44.6875 C-10.375 46.6675 -10.375 48.6475 -10.375 50.6875 C-12.84578854 48.21671146 -13.1137214 46.50206096 -13.9375 43.125 C-14.31068359 41.63806641 -14.31068359 41.63806641 -14.69140625 40.12109375 C-16.22026877 32.44183574 -16.58017475 24.81640241 -16.625 17 C-16.645625 16.08927734 -16.66625 15.17855469 -16.6875 14.24023438 C-16.7182144 8.95351841 -16.35582517 5.25371503 -13.375 0.6875 C-9.50221492 -2.35540256 -4.22688045 -2.33590762 0 0 Z " fill="#7D5AD8" transform="translate(155.375,31.3125)"/>
<path d="M0 0 C4.6 2.2 4.6 2.2 6 5 C6.26186347 10.2372694 5.97513861 14.06215348 4 19 C3.67 19 3.34 19 3 19 C2.95745644 17.00045254 2.95919217 14.99958364 3 13 C3.33 12.67 3.66 12.34 4 12 C3.97483558 10.12052247 3.97483558 10.12052247 3.6875 8 C3.60886719 7.278125 3.53023437 6.55625 3.44921875 5.8125 C3.22685547 4.9153125 3.22685547 4.9153125 3 4 C-0.18586105 2.40706948 -3.54059949 2.47649154 -7 3 C-9.11001159 4.67256616 -9.11001159 4.67256616 -10 7 C-10 7.99 -10 8.98 -10 10 C-10.95211112 12.02323613 -11.94773272 14.02699884 -13 16 C-14.30979218 12.38967539 -13.69111399 10.37335642 -12.25 6.875 C-11.73179688 5.57175781 -11.73179688 5.57175781 -11.203125 4.2421875 C-8.58491803 -0.63719822 -5.0317029 -0.43376749 0 0 Z " fill="#825ED3" transform="translate(21,25)"/>
<path d="M0 0 C3 2 3 2 3.875 3.8125 C6.39418742 8.71091998 9.94690353 11.17527072 15 13 C15.33 13.66 15.66 14.32 16 15 C23.15331597 17.22476643 30.55223368 18.36883336 38 19 C38 19.33 38 19.66 38 20 C26.47274498 20.61266907 16.51125103 19.07161914 7.13671875 11.9765625 C4.00905872 9.08333402 1.70711532 5.9083956 0 2 C0 1.34 0 0.68 0 0 Z " fill="#F1C175" transform="translate(366,82)"/>
<path d="M0 0 C0 0.66 0 1.32 0 2 C-0.99 2 -1.98 2 -3 2 C-3 2.99 -3 3.98 -3 5 C-3.928125 5.598125 -4.85625 6.19625 -5.8125 6.8125 C-9.342799 9.23525421 -10.40319461 11.09669793 -12 15 C-12.99 14.67 -13.98 14.34 -15 14 C-15.99 14.495 -15.99 14.495 -17 15 C-15.24579167 8.56790279 -10.26344653 4.32390269 -4.6875 1.0625 C-2 0 -2 0 0 0 Z " fill="#F5BE6A" transform="translate(456,23)"/>
<path d="M0 0 C2.24092012 1.92078867 3.19505382 3.40636213 4.5 6.125 C5.73106508 9.29636171 5.73106508 9.29636171 9 10 C9 9.34 9 8.68 9 8 C9.66 8 10.32 8 11 8 C11 8.99 11 9.98 11 11 C15.95514502 10.12527407 15.95514502 10.12527407 19.4375 6.875 C19.623125 6.25625 19.80875 5.6375 20 5 C19.875 7.3125 19.875 7.3125 19 10 C15.6167036 12.41664029 13.53944252 13 9.375 13 C5.24286506 11.77566372 4.16505037 10.68860434 2 7 C1.15678177 4.67271769 0.56901125 2.4182978 0 0 Z " fill="#F0C27B" transform="translate(327,98)"/>
<path d="M0 0 C0.66 0.33 1.32 0.66 2 1 C1.34 3.31 0.68 5.62 0 8 C-0.99 8 -1.98 8 -3 8 C-3 13.61 -3 19.22 -3 25 C-3.66 25.33 -4.32 25.66 -5 26 C-5.70279523 6.1655567 -5.70279523 6.1655567 -1.42578125 1.15625 C-0.95527344 0.7746875 -0.48476563 0.393125 0 0 Z " fill="#F2BD71" transform="translate(276,27)"/>
<path d="M0 0 C0.66 0.33 1.32 0.66 2 1 C2 1.99 2 2.98 2 4 C-0.07553648 4.5534764 -1.84365964 5 -4 5 C-4.433125 5.7425 -4.86625 6.485 -5.3125 7.25 C-7.16677714 10.27178496 -9.15621943 11.92480878 -12 14 C-12.33 13.34 -12.66 12.68 -13 12 C-9.04174791 7.17514834 -5.40839975 3.16589254 0 0 Z " fill="#865CE3" transform="translate(89,24)"/>
<path d="M0 0 C3.16115776 1.36983503 3.9927092 1.9890638 6 5 C6.32100681 9.46940246 5.73189762 13.00839677 3.0625 16.625 C-1.418754 18.63699159 -5.26016728 17.8467274 -10 17 C-10 16.67 -10 16.34 -10 16 C-8.84371094 15.92652344 -8.84371094 15.92652344 -7.6640625 15.8515625 C-6.66117187 15.77679688 -5.65828125 15.70203125 -4.625 15.625 C-3.62726563 15.55539063 -2.62953125 15.48578125 -1.6015625 15.4140625 C1.15508879 15.23636036 1.15508879 15.23636036 3 13 C3.46006346 10.79749008 3.46006346 10.79749008 3.625 8.375 C3.69976562 7.55773437 3.77453125 6.74046875 3.8515625 5.8984375 C3.90054687 5.27195312 3.94953125 4.64546875 4 4 C2.68 4 1.36 4 0 4 C0 2.68 0 1.36 0 0 Z " fill="#EEC077" transform="translate(417,21)"/>
<path d="M0 0 C1.216875 -0.01417969 2.43375 -0.02835938 3.6875 -0.04296875 C6.7719563 0.17163375 8.42673876 0.55991226 11 2.1875 C9.02 2.1875 7.04 2.1875 5 2.1875 C5 2.8475 5 3.5075 5 4.1875 C2.69 4.5175 0.38 4.8475 -2 5.1875 C-2 4.5275 -2 3.8675 -2 3.1875 C-1.01 2.8575 -0.02 2.5275 1 2.1875 C-2.63 2.1875 -6.26 2.1875 -10 2.1875 C-10 2.8475 -10 3.5075 -10 4.1875 C-11.65 4.1875 -13.3 4.1875 -15 4.1875 C-10.11351569 0.17360218 -6.25885981 0.03315074 0 0 Z " fill="#F5BF6E" transform="translate(406,18.8125)"/>
<path d="M0 0 C0.66 0 1.32 0 2 0 C3.03789581 1.64333504 4.03567924 3.31243867 5 5 C6.98220878 7.30867149 6.98220878 7.30867149 10.5625 8 C11.696875 8.33 12.83125 8.66 14 9 C14.33 9.66 14.66 10.32 15 11 C17.8159849 11.46898963 17.8159849 11.46898963 21.0625 11.625 C22.16722656 11.69976562 23.27195312 11.77453125 24.41015625 11.8515625 C25.26480469 11.90054688 26.11945312 11.94953125 27 12 C27 12.33 27 12.66 27 13 C12.1544369 13.81469554 12.1544369 13.81469554 6 9 C3.75389495 6.83118029 1.70499714 4.62207893 0 2 C0 1.34 0 0.68 0 0 Z " fill="#8159DC" transform="translate(9,67)"/>
<path d="M0 0 C0.8852947 2.47544187 1.09093521 3.71011262 0.29296875 6.25390625 C-0.07183594 7.01574219 -0.43664062 7.77757813 -0.8125 8.5625 C-1.16957031 9.32691406 -1.52664063 10.09132813 -1.89453125 10.87890625 C-3 13 -3 13 -5 16 C-6.9453125 16.51171875 -6.9453125 16.51171875 -9.125 16.6875 C-10.40375 16.790625 -11.6825 16.89375 -13 17 C-8.25 13 -8.25 13 -6 13 C-4.53347983 10.11980724 -3.17952126 7.20691485 -1.875 4.25 C-1.34519531 3.05117187 -1.34519531 3.05117187 -0.8046875 1.828125 C-0.53914063 1.22484375 -0.27359375 0.6215625 0 0 Z " fill="#F3BE6E" transform="translate(477,67)"/>
<path d="M0 0 C0.33 1.32 0.66 2.64 1 4 C-1.28431738 6.35800504 -3.0081024 7.88720897 -6.3359375 8.265625 C-8.56920205 8.251535 -10.77382441 8.17460201 -13 8 C-13 7.67 -13 7.34 -13 7 C-11.6696875 6.62875 -11.6696875 6.62875 -10.3125 6.25 C-6.87988002 4.95467171 -4.75926166 3.37603087 -2 1 C-1.34 0.67 -0.68 0.34 0 0 Z " fill="#F6BD68" transform="translate(284,98)"/>
<path d="M0 0 C0.66 0.33 1.32 0.66 2 1 C1.38125 1.99 0.7625 2.98 0.125 4 C-2.12261959 7.89746801 -3.07617101 11.6118123 -4 16 C-7.125 9.75 -7.125 9.75 -6 5 C-5.01 4.67 -4.02 4.34 -3 4 C-1.31461399 2.00334686 -1.31461399 2.00334686 0 0 Z " fill="#F4BD6D" transform="translate(456,42)"/>
<path d="M0 0 C1.51685753 4.35357811 0.14961303 6.73639551 -1.7421875 10.73828125 C-3.49282937 13.88617455 -5.56016185 16.35684201 -8 19 C-8.66 18.67 -9.32 18.34 -10 18 C-10 17.34 -10 16.68 -10 16 C-9.01 16 -8.02 16 -7 16 C-7 15.34 -7 14.68 -7 14 C-6.34 14 -5.68 14 -5 14 C-4.80664062 13.32453125 -4.61328125 12.6490625 -4.4140625 11.953125 C-4.15367187 11.06109375 -3.89328125 10.1690625 -3.625 9.25 C-3.36976563 8.36828125 -3.11453125 7.4865625 -2.8515625 6.578125 C-2.0790066 4.23919428 -1.16374324 2.16557438 0 0 Z " fill="#F0BF70" transform="translate(426,76)"/>
<path d="M0 0 C2.94632888 4.41949332 3.06976005 8.75404456 3 14 C2.36327203 17.17441192 1.51515783 20.12987723 0 23 C-0.66 23.33 -1.32 23.66 -2 24 C-1.855625 23.35675781 -1.71125 22.71351562 -1.5625 22.05078125 C-0.03795311 14.62920229 0.21638343 7.56139878 0 0 Z " fill="#8058D5" transform="translate(115,48)"/>
<path d="M0 0 C1.9375 1.5 1.9375 1.5 3 3 C1.4221875 2.690625 1.4221875 2.690625 -0.1875 2.375 C-4.03837968 1.99622495 -5.72520608 2.03512365 -9 4 C-10.34410262 6.01735205 -10.34410262 6.01735205 -11 8 C-11.66 8 -12.32 8 -13 8 C-10.7083157 0.93397341 -7.39660391 -0.80690225 0 0 Z " fill="#EEC078" transform="translate(226,29)"/>
<path d="M0 0 C0.33 0 0.66 0 1 0 C2.25 6.625 2.25 6.625 0 10 C-0.29452584 12.38677076 -0.4928217 14.78626094 -0.625 17.1875 C-0.69976562 18.45980469 -0.77453125 19.73210937 -0.8515625 21.04296875 C-0.90054687 22.01878906 -0.94953125 22.99460937 -1 24 C-1.33 24 -1.66 24 -2 24 C-2.3690205 7.1070615 -2.3690205 7.1070615 0 0 Z " fill="#F4BD6C" transform="translate(366,53)"/>
<path d="M0 0 C1.42944945 2.35438733 2.08661261 3.48032433 1.625 6.25 C1.41875 6.8275 1.2125 7.405 1 8 C-1 6 -1 6 -1.1875 3.4375 C-1 1 -1 1 0 0 Z M4 2 C5.13732426 5.40401948 4.83989957 7.77456664 4.0625 11.25 C3.86785156 12.14203125 3.67320312 13.0340625 3.47265625 13.953125 C3.31667969 14.62859375 3.16070312 15.3040625 3 16 C2.67 16 2.34 16 2 16 C2 12.04 2 8.08 2 4 C2.66 4 3.32 4 4 4 C4 3.34 4 2.68 4 2 Z " fill="#F5C069" transform="translate(345,87)"/>
<path d="M0 0 C0.66 0 1.32 0 2 0 C1.39301257 4.12751449 -0.03810791 7.3321148 -2 11 C-2.33 11 -2.66 11 -3 11 C-3.33 8.36 -3.66 5.72 -4 3 C-2.68 2.67 -1.36 2.34 0 2 C0 1.34 0 0.68 0 0 Z " fill="#F5BF6F" transform="translate(492,75)"/>
<path d="M0 0 C0.33 0 0.66 0 1 0 C1 1.65 1 3.3 1 5 C1.99 5.33 2.98 5.66 4 6 C4 7.32 4 8.64 4 10 C4.66 10 5.32 10 6 10 C6 10.99 6 11.98 6 13 C3.67241689 12.06896676 2.25642868 11.34617872 0.75 9.3125 C-0.27095909 6.16454282 -0.12632947 3.28456632 0 0 Z " fill="#F1BD68" transform="translate(390,64)"/>
<path d="M0 0 C0.33 0.99 0.66 1.98 1 3 C0.34 3 -0.32 3 -1 3 C-1 3.99 -1 4.98 -1 6 C-1.66 6 -2.32 6 -3 6 C-2.67 7.65 -2.34 9.3 -2 11 C-2.66 11 -3.32 11 -4 11 C-4 11.66 -4 12.32 -4 13 C-4.99 13 -5.98 13 -7 13 C-5.58832253 7.73829306 -3.25149768 4.27828642 0 0 Z " fill="#F2BD68" transform="translate(376,35)"/>
<path d="M0 0 C0.66 0 1.32 0 2 0 C1.67 0.598125 1.34 1.19625 1 1.8125 C-0.20787988 4.05386471 -0.20787988 4.05386471 0 7 C-0.875 9.04296875 -0.875 9.04296875 -2 11.1875 C-2.37125 11.90292969 -2.7425 12.61835937 -3.125 13.35546875 C-3.41375 13.89816406 -3.7025 14.44085938 -4 15 C-5.3480932 11.339671 -4.6336844 9.33449773 -3.125 5.8125 C-2.75632812 4.93207031 -2.38765625 4.05164063 -2.0078125 3.14453125 C-1 1 -1 1 0 0 Z " fill="#8A64E4" transform="translate(12,26)"/>
<path d="M0 0 C0.99 1.485 0.99 1.485 2 3 C0.35 2.67 -1.3 2.34 -3 2 C-3 1.34 -3 0.68 -3 0 C-4.6396875 0.2475 -4.6396875 0.2475 -6.3125 0.5 C-10 1 -10 1 -13 1 C-8.83366948 -3.16633052 -5.27032164 -1.95197098 0 0 Z " fill="#7D5ADE" transform="translate(61,25)"/>
<path d="M0 0 C0 0.66 0 1.32 0 2 C-0.66 2 -1.32 2 -2 2 C-2.33 2.99 -2.66 3.98 -3 5 C-6.21284338 6.88579937 -8.24633583 8 -12 8 C-10.71064081 6.85157077 -9.41843421 5.70633773 -8.125 4.5625 C-7.04605469 3.60537109 -7.04605469 3.60537109 -5.9453125 2.62890625 C-3.83529848 0.86208728 -2.76919975 0 0 0 Z " fill="#F2BD72" transform="translate(391,23)"/>
<path d="M0 0 C1.22541995 3.67625984 0.63382842 5.40247587 -0.3125 9.125 C-0.57675781 10.20007813 -0.84101563 11.27515625 -1.11328125 12.3828125 C-2 15 -2 15 -4 16 C-3.71861942 13.70704764 -3.4245814 11.41564544 -3.125 9.125 C-2.96257812 7.84882812 -2.80015625 6.57265625 -2.6328125 5.2578125 C-2 2 -2 2 0 0 Z " fill="#EEC27F" transform="translate(315,100)"/>
<path d="M0 0 C0.66 0 1.32 0 2 0 C0.44298069 4.67105792 -2.08447373 8.08705685 -5 12 C-5.66 10.68 -6.32 9.36 -7 8 C-6.34 7.34 -5.68 6.68 -5 6 C-4.34 6 -3.68 6 -3 6 C-2.67 5.01 -2.34 4.02 -2 3 C-1.34 3 -0.68 3 0 3 C0 2.01 0 1.02 0 0 Z " fill="#7D56DD" transform="translate(127,80)"/>
<path d="M0 0 C1.77503906 0.03480469 1.77503906 0.03480469 3.5859375 0.0703125 C5.36871094 0.09738281 5.36871094 0.09738281 7.1875 0.125 C8.10273437 0.14820313 9.01796875 0.17140625 9.9609375 0.1953125 C10.2909375 0.8553125 10.6209375 1.5153125 10.9609375 2.1953125 C9.89166016 2.12570313 9.89166016 2.12570313 8.80078125 2.0546875 C2.17839594 1.80512251 -1.6158974 2.33883954 -7.0390625 6.1953125 C-4.27616497 0.2748178 -4.27616497 0.2748178 0 0 Z " fill="#805BD8" transform="translate(99.0390625,38.8046875)"/>
<path d="M0 0 C0 3 0 3 -1.625 4.6875 C-4.58198664 6.32162419 -6.67179946 6.22692276 -10 6 C-10 5.34 -10 4.68 -10 4 C-9.36191406 3.79503906 -8.72382813 3.59007813 -8.06640625 3.37890625 C-7.24011719 3.10949219 -6.41382813 2.84007813 -5.5625 2.5625 C-4.73878906 2.29566406 -3.91507812 2.02882813 -3.06640625 1.75390625 C-1.03780412 1.17844506 -1.03780412 1.17844506 0 0 Z " fill="#EEBF71" transform="translate(260,89)"/>
<path d="M0 0 C0.66 0 1.32 0 2 0 C3.66666667 1.66666667 5.33333333 3.33333333 7 5 C7.99 5.33 8.98 5.66 10 6 C10 7.32 10 8.64 10 10 C6.82028869 8.62442924 4.95149011 7.10041354 2.75 4.4375 C1.96882812 3.50744141 1.96882812 3.50744141 1.171875 2.55859375 C0 1 0 1 0 0 Z " fill="#7F57DB" transform="translate(147,87)"/>
<path d="M0 0 C0.33 0 0.66 0 1 0 C1.625 3.375 1.625 3.375 2 7 C1.34 7.66 0.68 8.32 0 9 C-0.40047444 11.32275177 -0.7397104 13.65739357 -1 16 C-1.66 16 -2.32 16 -3 16 C-2.40984815 10.49191603 -1.43336231 5.35121931 0 0 Z " fill="#F1BC6D" transform="translate(306,59)"/>
<path d="M0 0 C0.86625 0.495 1.7325 0.99 2.625 1.5 C6.10749623 3.0477761 8.24759458 3.26802896 12 3 C12 3.66 12 4.32 12 5 C8.37 5 4.74 5 1 5 C0.67 3.35 0.34 1.7 0 0 Z " fill="#7E58D8" transform="translate(91,80)"/>
<path d="M0 0 C1.98 0.99 1.98 0.99 4 2 C4 2.66 4 3.32 4 4 C4.598125 4.12375 5.19625 4.2475 5.8125 4.375 C8 5 8 5 11 7 C11 7.66 11 8.32 11 9 C6.56029258 7.60466338 4.09484321 5.43871468 1 2 C0.67 1.34 0.34 0.68 0 0 Z " fill="#7854DD" transform="translate(77,91)"/>
<path d="M0 0 C1.65 0.33 3.3 0.66 5 1 C2.61042731 4.24299151 0.7952131 6.50902342 -3 8 C-2.67 6.68 -2.34 5.36 -2 4 C-1.34 4 -0.68 4 0 4 C0 2.68 0 1.36 0 0 Z " fill="#F5C175" transform="translate(482,88)"/>
<path d="M0 0 C2.97 0.495 2.97 0.495 6 1 C6 3.97 6 6.94 6 10 C3.45919111 7.0173113 2.7197678 4.80448693 2 1 C1.34 0.67 0.68 0.34 0 0 Z " fill="#F3C36D" transform="translate(319,83)"/>
<path d="M0 0 C0 0.66 0 1.32 0 2 C-0.99 2.495 -0.99 2.495 -2 3 C-2.33 3.99 -2.66 4.98 -3 6 C-4.65 5.67 -6.3 5.34 -8 5 C-7.67 4.01 -7.34 3.02 -7 2 C-4.56723614 0.81480735 -2.71982714 0 0 0 Z " fill="#8355E5" transform="translate(173,79)"/>
<path d="M0 0 C0.99773437 0.02320312 1.99546875 0.04640625 3.0234375 0.0703125 C4.52777344 0.09738281 4.52777344 0.09738281 6.0625 0.125 C6.83335937 0.14820312 7.60421875 0.17140625 8.3984375 0.1953125 C8.3984375 0.5253125 8.3984375 0.8553125 8.3984375 1.1953125 C6.98465968 1.56084053 5.56723174 1.91226745 4.1484375 2.2578125 C3.35953125 2.45503906 2.570625 2.65226562 1.7578125 2.85546875 C-0.70551072 3.21028517 -2.25760382 2.96408794 -4.6015625 2.1953125 C-2.6015625 0.1953125 -2.6015625 0.1953125 0 0 Z " fill="#F0BD67" transform="translate(226.6015625,96.8046875)"/>
<path d="M0 0 C0.33 0.66 0.66 1.32 1 2 C0.67 2.66 0.34 3.32 0 4 C-3.63 4 -7.26 4 -11 4 C-11 3.01 -11 2.02 -11 1 C-10.67 1.33 -10.34 1.66 -10 2 C-6.05163095 2.2632246 -3.39620731 2.08997373 0 0 Z " fill="#8057DA" transform="translate(37,59)"/>
<path d="M0 0 C0.33 0.66 0.66 1.32 1 2 C1.99 1.34 2.98 0.68 4 0 C6.1875 0.375 6.1875 0.375 8 1 C4.14243493 3.15305957 1.44870215 4.39253254 -3 4 C-2.34 3.67 -1.68 3.34 -1 3 C-0.67 2.01 -0.34 1.02 0 0 Z " fill="#7C57DB" transform="translate(31,104)"/>
<path d="M0 0 C0.33 0.66 0.66 1.32 1 2 C0.00390625 3.9453125 0.00390625 3.9453125 -1.4375 6.125 C-1.91058594 6.84945312 -2.38367187 7.57390625 -2.87109375 8.3203125 C-3.24363281 8.87460938 -3.61617187 9.42890625 -4 10 C-4.33 8.68 -4.66 7.36 -5 6 C-4.01 5.67 -3.02 5.34 -2 5 C-2 3.68 -2 2.36 -2 1 C-1.34 0.67 -0.68 0.34 0 0 Z " fill="#7752DD" transform="translate(53,86)"/>
<path d="M0 0 C1.875 0.3125 1.875 0.3125 4 1 C6.67927341 5.01891012 6.15601248 7.24161923 6 12 C5.67 12 5.34 12 5 12 C5 9.69 5 7.38 5 5 C4.01 5 3.02 5 2 5 C1.34 3.35 0.68 1.7 0 0 Z " fill="#EEB96C" transform="translate(256,77)"/>
<path d="M0 0 C0.66 0 1.32 0 2 0 C2.625 2.375 2.625 2.375 3 5 C2.34 5.66 1.68 6.32 1 7 C0.01 7 -0.98 7 -2 7 C-1.34 4.69 -0.68 2.38 0 0 Z " fill="#7D51E8" transform="translate(181,65)"/>
<path d="M0 0 C1.65 0 3.3 0 5 0 C4.67 2.31 4.34 4.62 4 7 C3.67 6.01 3.34 5.02 3 4 C2.34 4 1.68 4 1 4 C0.67 2.68 0.34 1.36 0 0 Z " fill="#8655ED" transform="translate(113,44)"/>
<path d="M0 0 C2.64 0.66 5.28 1.32 8 2 C6 4 6 4 2.375 4.125 C1.26125 4.08375 0.1475 4.0425 -1 4 C-0.67 2.68 -0.34 1.36 0 0 Z " fill="#F4B866" transform="translate(465,97)"/>
<path d="M0 0 C0.66 1.32 1.32 2.64 2 4 C0.625 6 0.625 6 -1 8 C-1.66 8 -2.32 8 -3 8 C-1.125 1.125 -1.125 1.125 0 0 Z " fill="#F5C069" transform="translate(438,38)"/>
<path d="M0 0 C0.33 0.99 0.66 1.98 1 3 C-0.4375 5.1875 -0.4375 5.1875 -2 7 C-3.32 6.67 -4.64 6.34 -6 6 C-4 4 -2 2 0 0 Z " fill="#7D56DA" transform="translate(110,76)"/>
<path d="M0 0 C1.41687119 4.25061356 0.19320039 6.71851625 -1 11 C-1.33 11 -1.66 11 -2 11 C-2.05399736 9.54207116 -2.09279177 8.08357288 -2.125 6.625 C-2.15980469 5.40683594 -2.15980469 5.40683594 -2.1953125 4.1640625 C-2 2 -2 2 0 0 Z " fill="#7956D4" transform="translate(59,68)"/>
<path d="M0 0 C2.375 -0.1875 2.375 -0.1875 5 0 C5.66 0.99 6.32 1.98 7 3 C4 4 4 4 1.8125 3.0625 C1.214375 2.711875 0.61625 2.36125 0 2 C0 1.34 0 0.68 0 0 Z " fill="#8858EE" transform="translate(118,27)"/>
<path d="M0 0 C0.66 0.33 1.32 0.66 2 1 C2 1.99 2 2.98 2 4 C0.68 4.33 -0.64 4.66 -2 5 C-2 3.68 -2 2.36 -2 1 C-1.34 0.67 -0.68 0.34 0 0 Z " fill="#8757EE" transform="translate(89,24)"/>
</svg>
