<?xml version="1.0" encoding="UTF-8"?>
<svg version="1.1" xmlns="http://www.w3.org/2000/svg" width="500" height="500">
<path d="M0 0 C2.31375418 1.34527083 4.60554607 2.70959124 6.890625 4.1015625 C43.10366933 26.12832371 85.88792318 44.134719 128.11328125 49.6328125 C129.08265625 49.76300781 130.05203125 49.89320312 131.05078125 50.02734375 C140.58243223 51.1443341 150.0042475 50.78933457 159.48828125 49.4453125 C160.43525879 49.3114917 161.38223633 49.1776709 162.35791016 49.03979492 C202.03187694 43.13181663 240.72303949 26.69182236 275.52734375 7.0703125 C277.01306885 6.23282471 277.01306885 6.23282471 278.52880859 5.37841797 C280.35533036 4.3341069 282.1717759 3.27186927 283.97509766 2.18798828 C289.46760865 -0.97963883 293.76237425 -2.37012622 300.11328125 -1.3671875 C310.09395243 1.80234997 315.97368482 8.86434951 321.11328125 17.6328125 C324.07945594 24.69513319 324.25369544 31.98743504 324.15991211 39.53051758 C324.14714706 41.31744675 324.13470563 43.10437826 324.12254333 44.89131165 C324.11462706 45.8296969 324.10671078 46.76808216 324.09855461 47.73490334 C324.0561703 53.78757323 324.06828247 59.84044925 324.06844234 65.89323902 C324.0654432 71.19958016 324.04467322 76.5047469 323.98657227 81.81079102 C323.93124351 86.96119037 323.92498339 92.10962427 323.95126534 97.26022911 C323.95249516 99.21416843 323.93614515 101.16820584 323.90135002 103.12183571 C323.30825075 114.13306118 323.30825075 114.13306118 327.31069946 123.98982239 C329.78717167 126.47064235 332.31165835 128.5372524 335.11328125 130.6328125 C337.11430719 132.87809823 338.87380587 135.24380583 340.61328125 137.6953125 C341.06630615 138.32904785 341.51933105 138.9627832 341.98608398 139.61572266 C356.96152317 160.91400937 366.16981736 184.33817505 372.11328125 209.6328125 C372.27908691 210.33051758 372.44489258 211.02822266 372.61572266 211.74707031 C376.49228505 228.42753103 377.43208589 245.08487266 377.3190918 262.14257812 C377.30048946 265.05347205 377.2985853 267.96405199 377.29882812 270.875 C377.29392316 272.73958609 377.28809936 274.60417004 377.28125 276.46875 C377.28013718 277.33221039 377.27902435 278.19567078 377.27787781 279.08529663 C377.27149796 279.88778839 377.2651181 280.69028015 377.25854492 281.51708984 C377.25473312 282.21780609 377.25092133 282.91852234 377.24699402 283.64047241 C377.10612242 285.73948006 376.64562815 287.6020597 376.11328125 289.6328125 C317.01944635 289.6556762 257.92561156 289.67331139 198.83177317 289.68387783 C191.86319057 289.68512522 184.89460798 289.68642177 177.92602539 289.68774414 C176.88581101 289.68794028 176.88581101 289.68794028 175.82458221 289.68814038 C153.32673107 289.69240554 130.82888243 289.69991969 108.33103281 289.70910972 C84.56690886 289.71879943 60.80278686 289.7248061 37.03866094 289.72690099 C22.79407522 289.72827656 8.54949667 289.73262898 -5.69508684 289.74072897 C-15.44872554 289.74599441 -25.20236049 289.74761726 -34.9560005 289.74631388 C-40.59244597 289.74567018 -46.22887885 289.74669157 -51.86532211 289.75201797 C-57.0163417 289.75685042 -62.16734011 289.75715218 -67.31836063 289.75371139 C-69.19050645 289.75328555 -71.06265353 289.75458258 -72.9347968 289.75769568 C-75.46229481 289.76165711 -77.98971439 289.7595775 -80.51721096 289.75586033 C-81.25900023 289.75848734 -82.0007895 289.76111436 -82.76505724 289.76382098 C-87.77257295 289.7469583 -87.77257295 289.7469583 -88.88671875 288.6328125 C-94.49217402 244.16286736 -86.70779649 195.92301147 -64.88671875 156.6328125 C-64.52964844 155.98731445 -64.17257813 155.34181641 -63.8046875 154.67675781 C-57.42769802 143.2916909 -49.99623376 133.32915813 -40.515625 124.2890625 C-36.37866654 120.0826587 -36.60440091 116.39780305 -36.63134766 110.83789062 C-36.6277272 109.93828613 -36.62410675 109.03868164 -36.62037659 108.11181641 C-36.61347785 106.15569575 -36.61097804 104.19955582 -36.61232376 102.24342346 C-36.61328874 99.13997413 -36.60034719 96.03687145 -36.58334351 92.93347168 C-36.53708169 84.10867051 -36.51249295 75.28390257 -36.50585938 66.45898438 C-36.50082309 61.06074814 -36.47645855 55.66286991 -36.44053268 50.26475525 C-36.43077651 48.21404681 -36.42837973 46.16328882 -36.43370438 44.11256409 C-36.46811244 30.19901872 -36.3369581 17.1521063 -25.88671875 6.6328125 C-18.3088917 0.62142673 -9.56036502 -4.52791307 0 0 Z " fill="#B996FD" transform="translate(105.88671875,68.3671875)"/>
<path d="M0 0 C2.31375418 1.34527083 4.60554607 2.70959124 6.890625 4.1015625 C43.10366933 26.12832371 85.88792318 44.134719 128.11328125 49.6328125 C129.08265625 49.76300781 130.05203125 49.89320312 131.05078125 50.02734375 C140.58243223 51.1443341 150.0042475 50.78933457 159.48828125 49.4453125 C160.43525879 49.3114917 161.38223633 49.1776709 162.35791016 49.03979492 C202.03187694 43.13181663 240.72303949 26.69182236 275.52734375 7.0703125 C277.01306885 6.23282471 277.01306885 6.23282471 278.52880859 5.37841797 C280.35533036 4.3341069 282.1717759 3.27186927 283.97509766 2.18798828 C289.46760865 -0.97963883 293.76237425 -2.37012622 300.11328125 -1.3671875 C310.09395243 1.80234997 315.97368482 8.86434951 321.11328125 17.6328125 C324.07945594 24.69513319 324.25369544 31.98743504 324.15991211 39.53051758 C324.14714706 41.31744675 324.13470563 43.10437826 324.12254333 44.89131165 C324.11462706 45.8296969 324.10671078 46.76808216 324.09855461 47.73490334 C324.0561703 53.78757323 324.06828247 59.84044925 324.06844234 65.89323902 C324.0654432 71.19958016 324.04467322 76.5047469 323.98657227 81.81079102 C323.93124351 86.96119037 323.92498339 92.10962427 323.95126534 97.26022911 C323.95249516 99.21416843 323.93614515 101.16820584 323.90135002 103.12183571 C323.30825075 114.13306118 323.30825075 114.13306118 327.31069946 123.98982239 C329.78717167 126.47064235 332.31165835 128.5372524 335.11328125 130.6328125 C337.11430719 132.87809823 338.87380587 135.24380583 340.61328125 137.6953125 C341.06630615 138.32904785 341.51933105 138.9627832 341.98608398 139.61572266 C356.96152317 160.91400937 366.16981736 184.33817505 372.11328125 209.6328125 C372.27908691 210.33051758 372.44489258 211.02822266 372.61572266 211.74707031 C376.49228505 228.42753103 377.43208589 245.08487266 377.3190918 262.14257812 C377.30048946 265.05347205 377.2985853 267.96405199 377.29882812 270.875 C377.29392316 272.73958609 377.28809936 274.60417004 377.28125 276.46875 C377.28013718 277.33221039 377.27902435 278.19567078 377.27787781 279.08529663 C377.27149796 279.88778839 377.2651181 280.69028015 377.25854492 281.51708984 C377.25473312 282.21780609 377.25092133 282.91852234 377.24699402 283.64047241 C377.11328125 285.6328125 377.11328125 285.6328125 376.11328125 289.6328125 C358.62328125 289.6328125 341.13328125 289.6328125 323.11328125 289.6328125 C322.61828125 163.4078125 322.61828125 163.4078125 322.11328125 34.6328125 C317.82699717 40.52645311 313.54446343 46.41789086 309.29663086 52.33837891 C304.18913803 59.44870027 298.99764784 66.4662724 293.625 73.37890625 C290.82335762 76.9905284 288.09557572 80.65612798 285.36328125 84.3203125 C275.06711156 98.09181396 264.44111606 111.59051844 253.54150391 124.88867188 C252.25323477 126.46190174 250.970054 128.03929498 249.6875 129.6171875 C244.39250037 136.12542861 238.99903285 142.54554035 233.55908203 148.93261719 C232.10327155 150.64458345 230.65301192 152.36114089 229.203125 154.078125 C223.51332391 160.7922596 217.69108338 167.34803836 211.65283203 173.75170898 C211.1473584 174.28868408 210.64188477 174.82565918 210.12109375 175.37890625 C209.40647791 176.12185991 209.40647791 176.12185991 208.67742538 176.87982273 C207.0887642 178.57933268 207.0887642 178.57933268 205.89654922 180.4483099 C203.85333859 183.36943713 202.26737274 185.3079851 198.76290131 186.29434395 C195.83420337 186.56590026 192.97548691 186.61297644 190.03417969 186.58618164 C188.92770584 186.60326675 187.82123199 186.62035187 186.68122864 186.63795471 C183.02767885 186.68401138 179.37645214 186.67826396 175.72265625 186.66796875 C173.17685121 186.68030736 170.63105362 186.69428291 168.08526611 186.70982361 C162.74876298 186.73367953 157.41310618 186.73118762 152.07666016 186.71020508 C145.92842598 186.68667911 139.78281278 186.7252657 133.63498473 186.79474169 C127.69962907 186.85930666 121.76507818 186.86762071 115.82935333 186.85415459 C113.31442112 186.85502566 110.79944259 186.87148212 108.28472137 186.9040699 C87.60581114 187.13725187 87.60581114 187.13725187 82.4083252 183.45626831 C79.8882777 180.97231006 78.01325973 178.60354645 76.11328125 175.6328125 C75.0088643 174.36459005 73.88758879 173.11050023 72.73828125 171.8828125 C71.52627924 170.46928322 70.31849893 169.05213073 69.11328125 167.6328125 C68.22190731 166.59327544 67.32992865 165.55425675 66.4375 164.515625 C64.39050067 162.13253097 62.3465164 159.74690031 60.3046875 157.359375 C58.19297191 154.89106876 56.07563485 152.42777941 53.953125 149.96875 C48.96842617 144.18825387 44.04141461 138.38481707 39.30859375 132.39453125 C36.42030877 128.76104819 33.48369083 125.16779987 30.55078125 121.5703125 C25.99953245 115.97794942 21.49965186 110.35588747 17.11328125 104.6328125 C16.34628906 103.64023438 15.57929687 102.64765625 14.7890625 101.625 C6.78324822 91.260607 -1.06329784 80.78342811 -8.79174805 70.21069336 C-11.70945615 66.2233466 -14.66007357 62.26386113 -17.63671875 58.3203125 C-22.03136082 52.48171661 -26.21801951 46.51198274 -30.359375 40.4921875 C-32.62127729 37.02499437 -32.62127729 37.02499437 -35.88671875 34.6328125 C-36.53364401 24.76720234 -33.92968696 16.16736331 -27.66015625 8.41796875 C-20.46274486 1.17299737 -9.99764001 -4.73501219 0 0 Z " fill="#8B52FE" transform="translate(105.88671875,68.3671875)"/>
<path d="M0 0 C0.44730469 0.38671875 0.89460938 0.7734375 1.35546875 1.171875 C1.96003906 1.69265625 2.56460937 2.2134375 3.1875 2.75 C3.77917969 3.26046875 4.37085938 3.7709375 4.98046875 4.296875 C6.44499701 5.53195105 7.95289866 6.71617226 9.484375 7.8671875 C12.18523746 10.15704915 14.0262415 12.48456547 16.0625 15.375 C17.09310547 16.83486328 17.09310547 16.83486328 18.14453125 18.32421875 C19.06298828 19.64873047 19.06298828 19.64873047 20 21 C20.7425 22.051875 21.485 23.10375 22.25 24.1875 C32.54141034 40.72726661 36.44284258 60.89724023 32.23046875 80.10546875 C31.32513037 83.18217646 30.27406171 86.05951847 29 89 C28.69964844 89.78761719 28.39929688 90.57523437 28.08984375 91.38671875 C22.80498694 104.49590902 13.83801758 116.08005083 3 125 C2.12601562 125.77214844 1.25203125 126.54429687 0.3515625 127.33984375 C-7.23724131 133.94189961 -15.22150107 139.11704813 -24 144 C-25.02867187 144.59425781 -26.05734375 145.18851563 -27.1171875 145.80078125 C-44.38534248 155.16692516 -64.61230159 161.04127901 -84 164 C-85.64295044 164.26055176 -85.64295044 164.26055176 -87.3190918 164.52636719 C-99.02072193 166.20047991 -110.62990595 166.39771685 -122.4375 166.375 C-123.45268707 166.37478851 -124.46787415 166.37457703 -125.51382446 166.37435913 C-141.03851266 166.34209853 -155.83388653 165.57627593 -171 162 C-171.82773926 161.81808105 -172.65547852 161.63616211 -173.50830078 161.44873047 C-209.08822278 153.56009708 -245.13336099 135.46916604 -265.7421875 104.37109375 C-267.23320307 101.9417027 -268.65130679 99.51122877 -270 97 C-270.32242676 96.41057617 -270.64485352 95.82115234 -270.97705078 95.21386719 C-279.48662316 79.08088896 -280.60857212 58.88228449 -275.31640625 41.5859375 C-269.89073402 26.80621315 -259.99765674 10.53161494 -247 1 C-245.02734375 0.8515625 -245.02734375 0.8515625 -243 2 C-241.17522298 4.04658946 -239.55686601 6.0513746 -237.9375 8.25 C-236.96178651 9.53418931 -235.98386487 10.81670345 -235.00390625 12.09765625 C-234.50648926 12.75008301 -234.00907227 13.40250977 -233.49658203 14.07470703 C-231.20787012 17.01904343 -228.80100081 19.85602394 -226.375 22.6875 C-223.0584917 26.56917671 -219.77975492 30.47245069 -216.5625 34.4375 C-208.73402846 44.04135704 -200.63345214 53.39372098 -192.2578125 62.5234375 C-189.61450279 65.42284642 -187.03470415 68.37252983 -184.47265625 71.34375 C-183.98667969 71.8903125 -183.50070313 72.436875 -183 73 C-182.57030851 73.51977637 -182.14061703 74.03955275 -181.69790459 74.57507992 C-179.4881168 76.42958401 -178.22402388 76.40168261 -175.36087036 76.45497131 C-173.93142342 76.49150566 -173.93142342 76.49150566 -172.47309875 76.52877808 C-170.90691048 76.54559128 -170.90691048 76.54559128 -169.30908203 76.56274414 C-167.6572567 76.59713341 -167.6572567 76.59713341 -165.97206116 76.63221741 C-162.31734213 76.70170196 -158.66298082 76.74637333 -155.0078125 76.78515625 C-153.13316126 76.80724057 -153.13316126 76.80724057 -151.22063828 76.82977104 C-145.96207462 76.88882232 -140.70356418 76.94184268 -135.44474983 76.97176456 C-127.93403532 77.01468029 -120.4274816 77.10500352 -112.91829598 77.26393038 C-106.98481956 77.38516063 -101.05225529 77.42832784 -95.11751938 77.44509697 C-92.60483217 77.46333349 -90.09219495 77.50525085 -87.58032608 77.57191658 C-73.25724753 78.42861784 -73.25724753 78.42861784 -60.60491943 72.92184448 C-57.71570563 70.06840798 -55.31445342 66.98934565 -53.07729721 63.60655022 C-51.7244026 61.58900751 -50.15806912 59.83354645 -48.5 58.0625 C-47.33200638 56.70947769 -46.16557847 55.35510343 -45 54 C-44.02654777 52.87976834 -43.05253227 51.76002604 -42.078125 50.640625 C-32.5035344 39.63485494 -22.97461578 28.62657546 -14.00585938 17.11816406 C-3.00533488 3.00533488 -3.00533488 3.00533488 0 0 Z " fill="#DCCAFE" transform="translate(372,177)"/>
<path d="M0 0 C0.33 0 0.66 0 1 0 C1 56.1 1 112.2 1 170 C-16.16 170 -33.32 170 -51 170 C-55.59149364 165.40850636 -53.23584849 148.07822106 -53.25 141.75 C-53.21854688 105.36322989 -45.7736678 69.00258725 -28 37 C-27.64292969 36.35450195 -27.28585938 35.70900391 -26.91796875 35.04394531 C-20.54097927 23.6588784 -13.10951501 13.69634563 -3.62890625 4.65625 C-1.7933979 2.893707 -1.7933979 2.893707 0 0 Z " fill="#8B52FC" transform="translate(69,188)"/>
<path d="M0 0 C37.29 0 74.58 0 113 0 C113 0.66 113 1.32 113 2 C112.34 2 111.68 2 111 2 C110.67 2.99 110.34 3.98 110 5 C108.57065603 6.16341951 107.138999 7.32421043 105.69140625 8.46484375 C103.13883121 10.78161509 101.26548125 13.51280639 99.296875 16.328125 C98 18 98 18 96 19 C95.03905084 20.72308126 94.07929181 22.44685106 93.12890625 24.17578125 C91.47623078 26.84636757 89.24168248 28.81169091 87 31 C86.04629963 32.27975178 85.10996316 33.57255202 84.1875 34.875 C81.03778158 39.16710334 77.41459251 42.98791129 73 46 C72.01 46 71.02 46 70 46 C69.9071875 46.86625 69.9071875 46.86625 69.8125 47.75 C68.6812921 50.88257571 66.62052199 52.03460851 64 54 C63.505 54.99 63.505 54.99 63 56 C61.21484375 56.5546875 61.21484375 56.5546875 58.9375 56.875 C58.20402344 56.99617188 57.47054687 57.11734375 56.71484375 57.2421875 C49.27249697 56.57826592 43.97399641 51.59120957 39 46.4375 C38.41605469 45.86064453 37.83210938 45.28378906 37.23046875 44.68945312 C33 40.39458614 33 40.39458614 33 37 C32.34 37 31.68 37 31 37 C29.76113958 35.5602433 28.5284816 34.11430315 27.33984375 32.6328125 C24.75432341 29.48194515 21.7523224 26.7266597 18.82421875 23.8984375 C14.66367829 19.82641918 11.04348663 16.00001375 8 11 C7.15836418 9.74152877 6.30364503 8.49173004 5.4375 7.25 C5.04433594 6.67765625 4.65117187 6.1053125 4.24609375 5.515625 C2.89046047 3.71721398 2.89046047 3.71721398 0 2 C0 1.34 0 0.68 0 0 Z " fill="#FDBC5A" transform="translate(193,254)"/>
<path d="M0 0 C0.33 0 0.66 0 1 0 C0.99254257 1.06995712 0.98508514 2.13991425 0.97740173 3.24229431 C0.91284741 13.34971762 0.89585367 23.45626441 0.92484188 33.56386471 C0.938231 38.75986956 0.93514807 43.95475432 0.89379883 49.15063477 C0.85447256 54.16976227 0.85922798 59.18712783 0.89392281 64.20627022 C0.89950078 66.11632746 0.88947453 68.02649907 0.86323357 69.9363842 C0.43546496 80.55572837 0.43546496 80.55572837 4.07693481 90.19656372 C6.27615301 92.3901793 8.47094961 94.20958147 11 96 C11 96.33 11 96.66 11 97 C8.36 97 5.72 97 3 97 C3 148.81 3 200.62 3 254 C27.255 254.495 27.255 254.495 52 255 C51.8792762 247.6024565 51.75626535 240.20501892 51.62768555 232.80761719 C51.5847193 230.29787347 51.54302259 227.78810766 51.50268555 225.27832031 C51.28567319 211.82891231 51.06095481 198.41359313 50 185 C50.33 185 50.66 185 51 185 C53.74145445 200.61649946 54.28811762 215.93430823 54.25 231.75 C54.24895264 232.71886139 54.24790527 233.68772278 54.24682617 234.6859436 C54.24045937 237.47304217 54.22449837 240.25985412 54.203125 243.046875 C54.19875427 243.89076279 54.19438354 244.73465057 54.18988037 245.60411072 C54.18039368 246.3879866 54.17090698 247.17186249 54.16113281 247.97949219 C54.15430481 248.66211121 54.14747681 249.34473022 54.14044189 250.04803467 C54 252 54 252 53 256 C35.51 256 18.02 256 0 256 C0 171.52 0 87.04 0 0 Z " fill="#9063E9" transform="translate(429,102)"/>
<path d="M0 0 C4.81899576 2.36403566 7.56479358 5.22324894 10 10 C10.65293024 15.22344192 9.845108 18.58517724 7 23 C3.32297423 26.40124883 0.71377437 27.83832317 -4.3125 28.3125 C-9.38517063 27.88261266 -12.04686239 25.68373932 -15.8125 22.4375 C-18.50614482 19.17677206 -18.33351862 15.30330625 -18.28125 11.28515625 C-17.71813252 6.70982676 -15.19489606 4.02419662 -11.8125 1.125 C-7.79598559 -0.48160576 -4.26599881 -0.67080193 0 0 Z " fill="#1A1A1B" transform="translate(339,241)"/>
<path d="M0 0 C3.70981445 1.64880642 6.33252649 3.95145885 9 7 C10.56840852 11.70522555 10.54895539 15.52648816 8.8125 20.1875 C6.20995401 24.22593343 3.55880664 26.48039779 -1 28 C-5.1320154 28.38981277 -7.46020609 28.27518905 -11.1875 26.375 C-15.55857134 22.68387309 -18.17961144 19.41094615 -18.6875 13.625 C-18.49320592 8.64093434 -16.08681164 6.01595281 -12.7265625 2.53125 C-8.93411913 -0.83218394 -4.84519125 -0.47106026 0 0 Z " fill="#1C1B1F" transform="translate(169,241)"/>
<path d="M0 0 C37.29 0 74.58 0 113 0 C113 0.66 113 1.32 113 2 C76.7 1.67 40.4 1.34 3 1 C3 1.66 3 2.32 3 3 C2.01 2.67 1.02 2.34 0 2 C0 1.34 0 0.68 0 0 Z " fill="#F4B696" transform="translate(193,254)"/>
<path d="M0 0 C7 7 7 7 7.125 9.625 C7.08375 10.40875 7.0425 11.1925 7 12 C6.34 12 5.68 12 5 12 C4.71125 13.0725 4.4225 14.145 4.125 15.25 C3.27179891 18.09400364 2.4363497 20.43508983 1 23 C0.34 22.67 -0.32 22.34 -1 22 C-0.67 21.01 -0.34 20.02 0 19 C0.38036706 13.86504475 -0.16469654 11.25295519 -3 7 C-3 5.33333333 -3 3.66666667 -3 2 C-2.01 1.34 -1.02 0.68 0 0 Z " fill="#D5C4F4" transform="translate(178,239)"/>
<path d="M0 0 C0.33 0 0.66 0 1 0 C1 2.31 1 4.62 1 7 C0.38125 7.268125 -0.2375 7.53625 -0.875 7.8125 C-3.2995233 8.95556848 -3.2995233 8.95556848 -5 12 C-5.66 12 -6.32 12 -7 12 C-7.33 13.32 -7.66 14.64 -8 16 C-9.32 15.67 -10.64 15.34 -12 15 C-12 15.99 -12 16.98 -12 18 C-12.66 18 -13.32 18 -14 18 C-14.33 18.99 -14.66 19.98 -15 21 C-15.66 20.67 -16.32 20.34 -17 20 C-12.91731679 14.48837766 -8.66314306 9.46618375 -3.69921875 4.7265625 C-1.80244419 2.90763995 -1.80244419 2.90763995 0 0 Z " fill="#8659E6" transform="translate(69,188)"/>
<path d="M0 0 C0 4.31618166 -2.13270348 5.92789659 -5 9 C-5.66 9 -6.32 9 -7 9 C-7 9.99 -7 10.98 -7 12 C-8.42578125 13.3515625 -8.42578125 13.3515625 -10.3125 14.625 C-10.92738281 15.05039062 -11.54226563 15.47578125 -12.17578125 15.9140625 C-15.22072532 17.72668445 -17.72429693 18.11927382 -21.1875 18.0625 C-23.0746875 18.0315625 -23.0746875 18.0315625 -25 18 C-25.33 17.34 -25.66 16.68 -26 16 C-22.37 16 -18.74 16 -15 16 C-14.34 14.68 -13.68 13.36 -13 12 C-11.67151309 10.99357052 -10.33849671 9.99307821 -9 9 C-8.67 8.01 -8.34 7.02 -8 6 C-6.35666496 4.96210419 -4.68756133 3.96432076 -3 3 C-1.24850835 1.41754725 -1.24850835 1.41754725 0 0 Z " fill="#EDC4AE" transform="translate(271,294)"/>
<path d="M0 0 C1.485 0.99 1.485 0.99 3 2 C3 2.66 3 3.32 3 4 C3.99 4.33 4.98 4.66 6 5 C6 5.66 6 6.32 6 7 C6.66 7 7.32 7 8 7 C9.00133837 8.66586292 10.00100642 10.33272989 11 12 C12.75661196 13.9659914 14.50933596 15.8344418 16.375 17.6875 C16.84421875 18.17283203 17.3134375 18.65816406 17.796875 19.15820312 C20.65556562 22.02084221 23.12911334 23.79650615 27 25 C23.98968256 25.93423645 23.13349732 26.04449911 20 25 C18.421875 23.3984375 18.421875 23.3984375 16.75 21.375 C13.77345191 17.84629906 10.63902483 14.61490259 7.28515625 11.4453125 C6 10 6 10 6 8 C5.01 8 4.02 8 3 8 C0 2.25 0 2.25 0 0 Z " fill="#EAC7D0" transform="translate(218,284)"/>
<path d="M0 0 C0.33 0.66 0.66 1.32 1 2 C-0.9462682 5.88596117 -3.55890104 8.89101495 -6.5 12.0625 C-9.16772574 14.94809001 -11.70161756 17.8102577 -14 21 C-14.66 20.67 -15.32 20.34 -16 20 C-14.68 17.69 -13.36 15.38 -12 13 C-11.34 13 -10.68 13 -10 13 C-9.75507813 12.43796875 -9.51015625 11.8759375 -9.2578125 11.296875 C-7.77073461 8.58134146 -5.95937218 6.53608562 -3.875 4.25 C-3.15054687 3.45078125 -2.42609375 2.6515625 -1.6796875 1.828125 C-0.84824219 0.92320312 -0.84824219 0.92320312 0 0 Z " fill="#E7C8D4" transform="translate(301,259)"/>
<path d="M0 0 C3.33209776 1.28336016 6.49104583 2.70953452 9.64453125 4.3828125 C10.48564453 4.82753906 11.32675781 5.27226563 12.19335938 5.73046875 C13.48983398 6.42076172 13.48983398 6.42076172 14.8125 7.125 C15.69615234 7.59292969 16.57980469 8.06085938 17.49023438 8.54296875 C19.66135525 9.69307603 21.8312226 10.84548146 24 12 C20.26757812 13.09716797 20.26757812 13.09716797 17.859375 12.22265625 C17.16328125 11.83980469 16.4671875 11.45695312 15.75 11.0625 C15.04359375 10.68222656 14.3371875 10.30195312 13.609375 9.91015625 C13.07828125 9.60980469 12.5471875 9.30945313 12 9 C12 8.34 12 7.68 12 7 C10.741875 6.67 9.48375 6.34 8.1875 6 C7.47980469 5.814375 6.77210937 5.62875 6.04296875 5.4375 C3.85929991 4.8952993 3.85929991 4.8952993 1 5 C0.67 3.35 0.34 1.7 0 0 Z " fill="#7E57D6" transform="translate(106,70)"/>
<path d="M0 0 C0 0.66 0 1.32 0 2 C-2.90600261 3.25664978 -4.79604584 4 -8 4 C-8.33 4.66 -8.66 5.32 -9 6 C-11.32375692 6.39460023 -13.6593935 6.72230092 -16 7 C-17.33917261 7.30903983 -18.67653254 7.62942911 -20 8 C-20 8.99 -20 9.98 -20 11 C-20.66 11 -21.32 11 -22 11 C-22 10.34 -22 9.68 -22 9 C-23.32 8.67 -24.64 8.34 -26 8 C-22.04328884 6.6618184 -18.08437472 5.330278 -14.125 4 C-12.99707031 3.6184375 -11.86914062 3.236875 -10.70703125 2.84375 C-9.63066406 2.4828125 -8.55429687 2.121875 -7.4453125 1.75 C-6.45031738 1.41484375 -5.45532227 1.0796875 -4.43017578 0.734375 C-2 0 -2 0 0 0 Z " fill="#8156DE" transform="translate(324,103)"/>
<path d="M0 0 C1.98 0.66 3.96 1.32 6 2 C6.33 3.98 6.66 5.96 7 8 C7.66 8 8.32 8 9 8 C10.01351664 9.65848177 11.01120795 11.32665961 12 13 C13.29579647 14.36984198 14.61992749 15.7151049 16 17 C15.67 17.66 15.34 18.32 15 19 C8.87849536 13.11393784 3.59036166 7.77911693 0 0 Z " fill="#EBC7BF" transform="translate(199,261)"/>
<path d="M0 0 C0.33 0.66 0.66 1.32 1 2 C-2.92497305 7.87584723 -6.80907122 13.18889528 -12 18 C-12.66 17.67 -13.32 17.34 -14 17 C-13.24074219 16.10796875 -12.48148437 15.2159375 -11.69921875 14.296875 C-10.69525246 13.11463432 -9.69134954 11.93233982 -8.6875 10.75 C-8.18798828 10.16347656 -7.68847656 9.57695312 -7.17382812 8.97265625 C-4.68918088 6.04373434 -2.2565687 3.11144626 0 0 Z " fill="#DABBFE" transform="translate(363,188)"/>
<path d="M0 0 C2.36185168 1.09708729 3.96522046 2.3304373 6 4 C5.01 4.495 5.01 4.495 4 5 C2.6696875 4.2575 2.6696875 4.2575 1.3125 3.5 C-2.72465619 1.6718538 -4.72830828 2.06799453 -9 3 C-9.969375 3.185625 -10.93875 3.37125 -11.9375 3.5625 C-12.618125 3.706875 -13.29875 3.85125 -14 4 C-9.76123553 -0.43143558 -5.99668738 -0.77344209 0 0 Z " fill="#211B2A" transform="translate(339,241)"/>
<path d="M0 0 C5.01515859 0.35822561 9.37114839 2.16442091 14 4 C11.10441295 4.81788791 8.44535913 5.18892672 5.4375 5.25 C4.29087891 5.28867188 4.29087891 5.28867188 3.12109375 5.328125 C0.50276756 4.92308006 -0.34518701 4.00903813 -2 2 C-1.34 1.34 -0.68 0.68 0 0 Z " fill="#8354E7" transform="translate(180,105)"/>
<path d="M0 0 C10.55808656 3.07517084 10.55808656 3.07517084 15 5 C15 5.33 15 5.66 15 6 C4.89867004 6.6269791 4.89867004 6.6269791 1.3125 4.125 C0 2 0 2 0 0 Z " fill="#8054E0" transform="translate(160,97)"/>
<path d="M0 0 C0.639375 0.20625 1.27875 0.4125 1.9375 0.625 C2.5975 0.295 3.2575 -0.035 3.9375 -0.375 C2.43526416 3.83126034 -0.34800034 5.36400021 -4.0625 7.625 C-4.75 5.3125 -4.75 5.3125 -5.0625 2.625 C-3.52187488 0.19243403 -2.90066483 -0.5273936 0 0 Z " fill="#F8BD6E" transform="translate(273.0625,288.375)"/>
<path d="M0 0 C5.99932374 1.8331267 11.44920563 4.07321751 17 7 C14.53870625 7.87823436 13.3063126 8.09761018 10.78125 7.29296875 C10.0284375 6.92816406 9.275625 6.56335938 8.5 6.1875 C7.7471875 5.83042969 6.994375 5.47335938 6.21875 5.10546875 C1.74603175 2.87698413 1.74603175 2.87698413 0 2 C0 1.34 0 0.68 0 0 Z " fill="#7F57DA" transform="translate(138,87)"/>
<path d="M0 0 C0.99 0 1.98 0 3 0 C1.59601721 4.10110762 -0.37087038 6.98089159 -3.125 10.3125 C-3.84945313 11.19550781 -4.57390625 12.07851562 -5.3203125 12.98828125 C-6.15175781 13.98408203 -6.15175781 13.98408203 -7 15 C-7.33 14.01 -7.66 13.02 -8 12 C-6.6015625 9.84375 -6.6015625 9.84375 -4.625 7.5 C-2.4403878 4.88890972 -1.08423696 3.25271088 0 0 Z " fill="#8B58F2" transform="translate(410,122)"/>
<path d="M0 0 C5.75762166 1.08896667 11.39247819 2.29336293 17 4 C14.64561267 5.42944945 13.51967567 6.08661261 10.75 5.625 C10.1725 5.41875 9.595 5.2125 9 5 C9 4.34 9 3.68 9 3 C6.03 2.67 3.06 2.34 0 2 C0 1.34 0 0.68 0 0 Z " fill="#7B51DA" transform="translate(195,110)"/>
<path d="M0 0 C0.66 0.33 1.32 0.66 2 1 C-2.17075007 4.86557324 -5.25136706 6.93543834 -11 8 C-13.2109375 7.5390625 -13.2109375 7.5390625 -15 7 C-12.54595776 5.80283341 -10.08748321 4.6170654 -7.625 3.4375 C-6.57699219 2.92413086 -6.57699219 2.92413086 -5.5078125 2.40039062 C-3.69947784 1.53969288 -1.85148044 0.76347564 0 0 Z " fill="#8358DE" transform="translate(363,85)"/>
<path d="M0 0 C0.66 0.33 1.32 0.66 2 1 C0.11192137 3.69725519 -1.19824644 5.13216429 -4 7 C-6.6875 6.625 -6.6875 6.625 -9 6 C-6.45368965 3.02930459 -3.57769851 1.5224249 0 0 Z " fill="#8456E6" transform="translate(390,71)"/>
<path d="M0 0 C0 3.56166249 -0.7172542 4.27442636 -2.875 7 C-4.68036977 9.30250058 -6.37401917 11.56102876 -8 14 C-8.66 13.67 -9.32 13.34 -10 13 C-8.68 10.69 -7.36 8.38 -6 6 C-5.34 6 -4.68 6 -4 6 C-3.71125 5.38125 -3.4225 4.7625 -3.125 4.125 C-2 2 -2 2 0 0 Z " fill="#EBC6BD" transform="translate(295,266)"/>
<path d="M0 0 C1.30048841 2.60097682 1.56471422 5.13955062 2 8 C1.360625 8.12375 0.72125 8.2475 0.0625 8.375 C-0.618125 8.58125 -1.29875 8.7875 -2 9 C-2.33 9.66 -2.66 10.32 -3 11 C-3.32613618 6.32538149 -2.70582788 3.83325617 0 0 Z M1 4 C1.66 4 2.32 4 3 4 C2.67 4.66 2.34 5.32 2 6 C1.67 5.34 1.34 4.68 1 4 Z " fill="#25212D" transform="translate(324,245)"/>
<path d="M0 0 C0.99 0.33 1.98 0.66 3 1 C0.69 3.64 -1.62 6.28 -4 9 C-4.33 7.68 -4.66 6.36 -5 5 C-2.5625 2.25 -2.5625 2.25 0 0 Z " fill="#8A58ED" transform="translate(334,219)"/>
<path d="M0 0 C1.10844919 3.32534757 0.84454356 5.62182575 0 9 C-1.32 9 -2.64 9 -4 9 C-2.94124926 5.59687262 -1.99097846 2.98646769 0 0 Z " fill="#8356E6" transform="translate(44,220)"/>
<path d="M0 0 C-0.625 1.875 -0.625 1.875 -2 4 C-5.81058817 5.73961634 -8.03483443 6.19298271 -12 5 C-10.37750059 4.16180842 -8.75191503 3.3295884 -7.125 2.5 C-6.22007812 2.0359375 -5.31515625 1.571875 -4.3828125 1.09375 C-2 0 -2 0 0 0 Z " fill="#8259E0" transform="translate(377,79)"/>
<path d="M0 0 C-2.86299506 2.86299506 -4.65852284 2.99421225 -8.6875 3.0625 C-9.780625 3.041875 -10.87375 3.02125 -12 3 C-7.40611595 -0.52197777 -5.79080563 -1.13298371 0 0 Z " fill="#2C2534" transform="translate(343,266)"/>
<path d="M0 0 C1.14926266 0.95421808 2.29430541 1.91352045 3.4375 2.875 C4.07558594 3.40867188 4.71367187 3.94234375 5.37109375 4.4921875 C7 6 7 6 8 8 C5.61435923 7.42415568 3.33317216 6.77772405 1 6 C0.67 4.02 0.34 2.04 0 0 Z " fill="#8154DD" transform="translate(430,189)"/>
<path d="M0 0 C0 0.66 0 1.32 0 2 C-1.11375 2.45375 -2.2275 2.9075 -3.375 3.375 C-6.96199008 4.72465986 -6.96199008 4.72465986 -9 7 C-10.32 6.34 -11.64 5.68 -13 5 C-11.21046815 4.16209211 -9.41830305 3.32980604 -7.625 2.5 C-6.62726563 2.0359375 -5.62953125 1.571875 -4.6015625 1.09375 C-2 0 -2 0 0 0 Z " fill="#815ADB" transform="translate(348,93)"/>
<path d="M0 0 C0.99 0.33 1.98 0.66 3 1 C3 1.66 3 2.32 3 3 C5.475 3.99 5.475 3.99 8 5 C7.67 6.32 7.34 7.64 7 9 C5.83037314 7.69013727 4.66437056 6.3770374 3.5 5.0625 C2.8503125 4.33160156 2.200625 3.60070312 1.53125 2.84765625 C0 1 0 1 0 0 Z " fill="#9062EF" transform="translate(181,241)"/>
<path d="M0 0 C1.16015625 -0.03867188 1.16015625 -0.03867188 2.34375 -0.078125 C4.98830838 0.3243078 5.83240802 1.21895849 7.5 3.25 C6.75234375 3.16621094 6.0046875 3.08242187 5.234375 2.99609375 C4.24953125 2.89425781 3.2646875 2.79242188 2.25 2.6875 C0.78820312 2.53087891 0.78820312 2.53087891 -0.703125 2.37109375 C-3.2631352 2.26025532 -5.08148159 2.47261908 -7.5 3.25 C-7.5 2.59 -7.5 1.93 -7.5 1.25 C-4.73952457 0.32984152 -2.86637731 0.05732755 0 0 Z " fill="#7B54CF" transform="translate(98.5,66.75)"/>
<path d="M0 0 C0.33 0.99 0.66 1.98 1 3 C-0.43359375 5.04296875 -0.43359375 5.04296875 -2.4375 7.1875 C-3.09621094 7.90292969 -3.75492187 8.61835938 -4.43359375 9.35546875 C-4.95050781 9.89816406 -5.46742188 10.44085938 -6 11 C-6.66 10.67 -7.32 10.34 -8 10 C-5.36 6.7 -2.72 3.4 0 0 Z " fill="#E7CAE2" transform="translate(277,288)"/>
<path d="M0 0 C1.98 0.66 3.96 1.32 6 2 C6.33 3.65 6.66 5.3 7 7 C3.42895561 5.12050295 1.45255699 3.82946843 0 0 Z " fill="#F0BD91" transform="translate(199,261)"/>
<path d="M0 0 C0.99 0.33 1.98 0.66 3 1 C2.67 2.98 2.34 4.96 2 7 C0.68 6.01 -0.64 5.02 -2 4 C-1.34 2.68 -0.68 1.36 0 0 Z " fill="#8857EF" transform="translate(179,234)"/>
<path d="M0 0 C0.33 0.66 0.66 1.32 1 2 C0.01 3.485 0.01 3.485 -1 5 C-1.38499891 6.65549531 -1.72793135 8.3222433 -2 10 C-3.32 10.33 -4.64 10.66 -6 11 C-4.54955729 6.89041233 -2.48889248 3.56741255 0 0 Z " fill="#7F59DA" transform="translate(51,209)"/>
<path d="M0 0 C0.66 0.33 1.32 0.66 2 1 C-1.465 3.97 -1.465 3.97 -5 7 C-5.66 6.34 -6.32 5.68 -7 5 C-4.69 3.35 -2.38 1.7 0 0 Z M-7 7 C-6.67 7.66 -6.34 8.32 -6 9 C-6.66 8.67 -7.32 8.34 -8 8 C-7.67 7.67 -7.34 7.34 -7 7 Z " fill="#BC9DF7" transform="translate(365,309)"/>
<path d="M0 0 C2 1 2 1 2.8515625 3.06640625 C3.10679687 3.89011719 3.36203125 4.71382812 3.625 5.5625 C3.88539063 6.38878906 4.14578125 7.21507812 4.4140625 8.06640625 C4.60742188 8.70449219 4.80078125 9.34257812 5 10 C2.525 9.01 2.525 9.01 0 8 C0 5.36 0 2.72 0 0 Z " fill="#7B51DF" transform="translate(460,230)"/>
<path d="M0 0 C1.33855056 0.78281305 2.67073644 1.57651877 4 2.375 C5.11375 3.03628906 5.11375 3.03628906 6.25 3.7109375 C6.8275 4.13632812 7.405 4.56171875 8 5 C8 5.66 8 6.32 8 7 C6.35 6.67 4.7 6.34 3 6 C3 5.34 3 4.68 3 4 C2.01 3.67 1.02 3.34 0 3 C0 2.01 0 1.02 0 0 Z " fill="#C5BADC" transform="translate(323,263)"/>
<path d="M0 0 C4.875 1.75 4.875 1.75 6 4 C5.34 4.66 4.68 5.32 4 6 C1.525 5.01 1.525 5.01 -1 4 C-0.67 2.68 -0.34 1.36 0 0 Z " fill="#251F2D" transform="translate(168,241)"/>
<path d="M0 0 C-3.44450737 2.29633824 -5.93812283 2.54016485 -10 3 C-6.46873184 -0.69178035 -5.02635024 -1.19045137 0 0 Z " fill="#2B2638" transform="translate(335,242)"/>
<path d="M0 0 C2.475 0.99 2.475 0.99 5 2 C5 2.99 5 3.98 5 5 C3.68 5 2.36 5 1 5 C0.67 3.35 0.34 1.7 0 0 Z " fill="#8356E7" transform="translate(106,70)"/>
<path d="M0 0 C4.29 0 8.58 0 13 0 C13 0.33 13 0.66 13 1 C9.7 1 6.4 1 3 1 C3 1.66 3 2.32 3 3 C2.01 2.67 1.02 2.34 0 2 C0 1.34 0 0.68 0 0 Z " fill="#EDB2A2" transform="translate(193,254)"/>
<path d="M0 0 C1.70840281 1.63412443 2.93453047 2.86906094 4 5 C4.04022391 7.3329866 4.04320247 9.66706666 4 12 C3.67 12 3.34 12 3 12 C2.87625 11.030625 2.7525 10.06125 2.625 9.0625 C2.41875 8.051875 2.2125 7.04125 2 6 C1.34 5.67 0.68 5.34 0 5 C0 3.35 0 1.7 0 0 Z " fill="#342D3F" transform="translate(345,246)"/>
<path d="M0 0 C0.66 1.65 1.32 3.3 2 5 C0.948125 4.5359375 0.948125 4.5359375 -0.125 4.0625 C-3.08936657 2.96697322 -5.87698108 2.43577008 -9 2 C-9 1.67 -9 1.34 -9 1 C-2.25 0 -2.25 0 0 0 Z " fill="#C8BBDF" transform="translate(172,239)"/>
<path d="M0 0 C2.5 2.3125 2.5 2.3125 5 5 C5 5.99 5 6.98 5 8 C4.34 7.34 3.68 6.68 3 6 C2.01 6.495 2.01 6.495 1 7 C0.67 4.69 0.34 2.38 0 0 Z " fill="#8155DD" transform="translate(419,76)"/>
<path d="M0 0 C0.33 0.66 0.66 1.32 1 2 C0.0625 4.625 0.0625 4.625 -1 7 C-2.32 6.67 -3.64 6.34 -5 6 C-3.35 4.02 -1.7 2.04 0 0 Z " fill="#8158E1" transform="translate(81,74)"/>
<path d="M0 0 C0.99 0.33 1.98 0.66 3 1 C0.03 3.475 0.03 3.475 -3 6 C-3.66 5.67 -4.32 5.34 -5 5 C-3.35 3.35 -1.7 1.7 0 0 Z " fill="#D8BBFF" transform="translate(335,222)"/>
</svg>
